<svg width="220" height="9" viewBox="0 0 220 9" fill="none" xmlns="http://www.w3.org/2000/svg">
<g filter="url(#filter0_d_104_68)">
<path d="M1.76972 3.906C1.76972 3.498 1.86172 3.132 2.04572 2.808C2.22972 2.48 2.47972 2.224 2.79572 2.04C3.11572 1.856 3.46972 1.764 3.85772 1.764C4.31372 1.764 4.71172 1.874 5.05172 2.094C5.39172 2.314 5.63972 2.626 5.79572 3.03H5.14172C5.02572 2.778 4.85772 2.584 4.63772 2.448C4.42172 2.312 4.16172 2.244 3.85772 2.244C3.56572 2.244 3.30372 2.312 3.07172 2.448C2.83972 2.584 2.65772 2.778 2.52572 3.03C2.39372 3.278 2.32772 3.57 2.32772 3.906C2.32772 4.238 2.39372 4.53 2.52572 4.782C2.65772 5.03 2.83972 5.222 3.07172 5.358C3.30372 5.494 3.56572 5.562 3.85772 5.562C4.16172 5.562 4.42172 5.496 4.63772 5.364C4.85772 5.228 5.02572 5.034 5.14172 4.782H5.79572C5.63972 5.182 5.39172 5.492 5.05172 5.712C4.71172 5.928 4.31372 6.036 3.85772 6.036C3.46972 6.036 3.11572 5.946 2.79572 5.766C2.47972 5.582 2.22972 5.328 2.04572 5.004C1.86172 4.68 1.76972 4.314 1.76972 3.906ZM8.04248 6.054C7.73448 6.054 7.45448 5.984 7.20248 5.844C6.95448 5.704 6.75848 5.506 6.61448 5.25C6.47448 4.99 6.40448 4.69 6.40448 4.35C6.40448 4.014 6.47648 3.718 6.62048 3.462C6.76848 3.202 6.96848 3.004 7.22048 2.868C7.47248 2.728 7.75448 2.658 8.06648 2.658C8.37848 2.658 8.66048 2.728 8.91248 2.868C9.16448 3.004 9.36248 3.2 9.50648 3.456C9.65448 3.712 9.72848 4.01 9.72848 4.35C9.72848 4.69 9.65248 4.99 9.50048 5.25C9.35248 5.506 9.15048 5.704 8.89448 5.844C8.63848 5.984 8.35448 6.054 8.04248 6.054ZM8.04248 5.574C8.23848 5.574 8.42248 5.528 8.59448 5.436C8.76648 5.344 8.90448 5.206 9.00848 5.022C9.11648 4.838 9.17048 4.614 9.17048 4.35C9.17048 4.086 9.11848 3.862 9.01448 3.678C8.91048 3.494 8.77448 3.358 8.60648 3.27C8.43848 3.178 8.25648 3.132 8.06048 3.132C7.86048 3.132 7.67648 3.178 7.50848 3.27C7.34448 3.358 7.21248 3.494 7.11248 3.678C7.01248 3.862 6.96248 4.086 6.96248 4.35C6.96248 4.618 7.01048 4.844 7.10648 5.028C7.20648 5.212 7.33848 5.35 7.50248 5.442C7.66648 5.53 7.84648 5.574 8.04248 5.574ZM12.0484 2.652C12.4484 2.652 12.7724 2.774 13.0204 3.018C13.2684 3.258 13.3924 3.606 13.3924 4.062V6H12.8524V4.14C12.8524 3.812 12.7704 3.562 12.6064 3.39C12.4424 3.214 12.2184 3.126 11.9344 3.126C11.6464 3.126 11.4164 3.216 11.2444 3.396C11.0764 3.576 10.9924 3.838 10.9924 4.182V6H10.4464V2.712H10.9924V3.18C11.1004 3.012 11.2464 2.882 11.4304 2.79C11.6184 2.698 11.8244 2.652 12.0484 2.652ZM15.6223 3.162H14.9323V6H14.3863V3.162H13.9603V2.712H14.3863V2.478C14.3863 2.11 14.4803 1.842 14.6683 1.674C14.8603 1.502 15.1663 1.416 15.5863 1.416V1.872C15.3463 1.872 15.1763 1.92 15.0763 2.016C14.9803 2.108 14.9323 2.262 14.9323 2.478V2.712H15.6223V3.162ZM16.5409 2.178C16.4369 2.178 16.3489 2.142 16.2769 2.07C16.2049 1.998 16.1689 1.91 16.1689 1.806C16.1689 1.702 16.2049 1.614 16.2769 1.542C16.3489 1.47 16.4369 1.434 16.5409 1.434C16.6409 1.434 16.7249 1.47 16.7929 1.542C16.8649 1.614 16.9009 1.702 16.9009 1.806C16.9009 1.91 16.8649 1.998 16.7929 2.07C16.7249 2.142 16.6409 2.178 16.5409 2.178ZM16.8049 2.712V6H16.2589V2.712H16.8049ZM17.5314 4.344C17.5314 4.008 17.5994 3.714 17.7354 3.462C17.8714 3.206 18.0574 3.008 18.2934 2.868C18.5334 2.728 18.8014 2.658 19.0974 2.658C19.3534 2.658 19.5914 2.718 19.8114 2.838C20.0314 2.954 20.1994 3.108 20.3154 3.3V1.56H20.8674V6H20.3154V5.382C20.2074 5.578 20.0474 5.74 19.8354 5.868C19.6234 5.992 19.3754 6.054 19.0914 6.054C18.7994 6.054 18.5334 5.982 18.2934 5.838C18.0574 5.694 17.8714 5.492 17.7354 5.232C17.5994 4.972 17.5314 4.676 17.5314 4.344ZM20.3154 4.35C20.3154 4.102 20.2654 3.886 20.1654 3.702C20.0654 3.518 19.9294 3.378 19.7574 3.282C19.5894 3.182 19.4034 3.132 19.1994 3.132C18.9954 3.132 18.8094 3.18 18.6414 3.276C18.4734 3.372 18.3394 3.512 18.2394 3.696C18.1394 3.88 18.0894 4.096 18.0894 4.344C18.0894 4.596 18.1394 4.816 18.2394 5.004C18.3394 5.188 18.4734 5.33 18.6414 5.43C18.8094 5.526 18.9954 5.574 19.1994 5.574C19.4034 5.574 19.5894 5.526 19.7574 5.43C19.9294 5.33 20.0654 5.188 20.1654 5.004C20.2654 4.816 20.3154 4.598 20.3154 4.35ZM24.7901 4.23C24.7901 4.334 24.7841 4.444 24.7721 4.56H22.1441C22.1641 4.884 22.2741 5.138 22.4741 5.322C22.6781 5.502 22.9241 5.592 23.2121 5.592C23.4481 5.592 23.6441 5.538 23.8001 5.43C23.9601 5.318 24.0721 5.17 24.1361 4.986H24.7241C24.6361 5.302 24.4601 5.56 24.1961 5.76C23.9321 5.956 23.6041 6.054 23.2121 6.054C22.9001 6.054 22.6201 5.984 22.3721 5.844C22.1281 5.704 21.9361 5.506 21.7961 5.25C21.6561 4.99 21.5861 4.69 21.5861 4.35C21.5861 4.01 21.6541 3.712 21.7901 3.456C21.9261 3.2 22.1161 3.004 22.3601 2.868C22.6081 2.728 22.8921 2.658 23.2121 2.658C23.5241 2.658 23.8001 2.726 24.0401 2.862C24.2801 2.998 24.4641 3.186 24.5921 3.426C24.7241 3.662 24.7901 3.93 24.7901 4.23ZM24.2261 4.116C24.2261 3.908 24.1801 3.73 24.0881 3.582C23.9961 3.43 23.8701 3.316 23.7101 3.24C23.5541 3.16 23.3801 3.12 23.1881 3.12C22.9121 3.12 22.6761 3.208 22.4801 3.384C22.2881 3.56 22.1781 3.804 22.1501 4.116H24.2261ZM27.1128 2.652C27.5128 2.652 27.8368 2.774 28.0848 3.018C28.3328 3.258 28.4568 3.606 28.4568 4.062V6H27.9168V4.14C27.9168 3.812 27.8348 3.562 27.6708 3.39C27.5068 3.214 27.2828 3.126 26.9988 3.126C26.7108 3.126 26.4808 3.216 26.3088 3.396C26.1408 3.576 26.0568 3.838 26.0568 4.182V6H25.5108V2.712H26.0568V3.18C26.1648 3.012 26.3108 2.882 26.4948 2.79C26.6828 2.698 26.8888 2.652 27.1128 2.652ZM30.0147 3.162V5.1C30.0147 5.26 30.0487 5.374 30.1167 5.442C30.1847 5.506 30.3027 5.538 30.4707 5.538H30.8727V6H30.3807C30.0767 6 29.8487 5.93 29.6967 5.79C29.5447 5.65 29.4687 5.42 29.4687 5.1V3.162H29.0427V2.712H29.4687V1.884H30.0147V2.712H30.8727V3.162H30.0147ZM31.8163 2.178C31.7123 2.178 31.6243 2.142 31.5523 2.07C31.4803 1.998 31.4443 1.91 31.4443 1.806C31.4443 1.702 31.4803 1.614 31.5523 1.542C31.6243 1.47 31.7123 1.434 31.8163 1.434C31.9163 1.434 32.0003 1.47 32.0683 1.542C32.1403 1.614 32.1763 1.702 32.1763 1.806C32.1763 1.91 32.1403 1.998 32.0683 2.07C32.0003 2.142 31.9163 2.178 31.8163 2.178ZM32.0803 2.712V6H31.5343V2.712H32.0803ZM32.8068 4.344C32.8068 4.008 32.8748 3.714 33.0108 3.462C33.1468 3.206 33.3328 3.008 33.5688 2.868C33.8088 2.728 34.0748 2.658 34.3668 2.658C34.6548 2.658 34.9048 2.72 35.1168 2.844C35.3288 2.968 35.4868 3.124 35.5908 3.312V2.712H36.1428V6H35.5908V5.388C35.4828 5.58 35.3208 5.74 35.1048 5.868C34.8928 5.992 34.6448 6.054 34.3608 6.054C34.0688 6.054 33.8048 5.982 33.5688 5.838C33.3328 5.694 33.1468 5.492 33.0108 5.232C32.8748 4.972 32.8068 4.676 32.8068 4.344ZM35.5908 4.35C35.5908 4.102 35.5408 3.886 35.4408 3.702C35.3408 3.518 35.2048 3.378 35.0328 3.282C34.8648 3.182 34.6788 3.132 34.4748 3.132C34.2708 3.132 34.0848 3.18 33.9168 3.276C33.7488 3.372 33.6148 3.512 33.5148 3.696C33.4148 3.88 33.3648 4.096 33.3648 4.344C33.3648 4.596 33.4148 4.816 33.5148 5.004C33.6148 5.188 33.7488 5.33 33.9168 5.43C34.0848 5.526 34.2708 5.574 34.4748 5.574C34.6788 5.574 34.8648 5.526 35.0328 5.43C35.2048 5.33 35.3408 5.188 35.4408 5.004C35.5408 4.816 35.5908 4.598 35.5908 4.35ZM37.6115 1.56V6H37.0655V1.56H37.6115ZM38.7161 6.036C38.6121 6.036 38.5241 6 38.4521 5.928C38.3801 5.856 38.3441 5.768 38.3441 5.664C38.3441 5.56 38.3801 5.472 38.4521 5.4C38.5241 5.328 38.6121 5.292 38.7161 5.292C38.8161 5.292 38.9001 5.328 38.9681 5.4C39.0401 5.472 39.0761 5.56 39.0761 5.664C39.0761 5.768 39.0401 5.856 38.9681 5.928C38.9001 6 38.8161 6.036 38.7161 6.036ZM41.9475 1.818V6H41.4015V1.818H41.9475ZM44.216 3.162H43.526V6H42.98V3.162H42.554V2.712H42.98V2.478C42.98 2.11 43.074 1.842 43.262 1.674C43.454 1.502 43.76 1.416 44.18 1.416V1.872C43.94 1.872 43.77 1.92 43.67 2.016C43.574 2.108 43.526 2.262 43.526 2.478V2.712H44.216V3.162ZM49.2842 2.712L47.3042 7.548H46.7402L47.3882 5.964L46.0622 2.712H46.6682L47.7002 5.376L48.7202 2.712H49.2842ZM51.2671 6.054C50.9591 6.054 50.6791 5.984 50.4271 5.844C50.1791 5.704 49.9831 5.506 49.8391 5.25C49.6991 4.99 49.6291 4.69 49.6291 4.35C49.6291 4.014 49.7011 3.718 49.8451 3.462C49.9931 3.202 50.1931 3.004 50.4451 2.868C50.6971 2.728 50.9791 2.658 51.2911 2.658C51.6031 2.658 51.8851 2.728 52.1371 2.868C52.3891 3.004 52.5871 3.2 52.7311 3.456C52.8791 3.712 52.9531 4.01 52.9531 4.35C52.9531 4.69 52.8771 4.99 52.7251 5.25C52.5771 5.506 52.3751 5.704 52.1191 5.844C51.8631 5.984 51.5791 6.054 51.2671 6.054ZM51.2671 5.574C51.4631 5.574 51.6471 5.528 51.8191 5.436C51.9911 5.344 52.1291 5.206 52.2331 5.022C52.3411 4.838 52.3951 4.614 52.3951 4.35C52.3951 4.086 52.3431 3.862 52.2391 3.678C52.1351 3.494 51.9991 3.358 51.8311 3.27C51.6631 3.178 51.4811 3.132 51.2851 3.132C51.0851 3.132 50.9011 3.178 50.7331 3.27C50.5691 3.358 50.4371 3.494 50.3371 3.678C50.2371 3.862 50.1871 4.086 50.1871 4.35C50.1871 4.618 50.2351 4.844 50.3311 5.028C50.4311 5.212 50.5631 5.35 50.7271 5.442C50.8911 5.53 51.0711 5.574 51.2671 5.574ZM56.587 2.712V6H56.041V5.514C55.937 5.682 55.791 5.814 55.603 5.91C55.419 6.002 55.215 6.048 54.991 6.048C54.735 6.048 54.505 5.996 54.301 5.892C54.097 5.784 53.935 5.624 53.815 5.412C53.699 5.2 53.641 4.942 53.641 4.638V2.712H54.181V4.566C54.181 4.89 54.263 5.14 54.427 5.316C54.591 5.488 54.815 5.574 55.099 5.574C55.391 5.574 55.621 5.484 55.789 5.304C55.957 5.124 56.041 4.862 56.041 4.518V2.712H56.587ZM57.5929 1.818H58.1989L57.6229 3.18H57.2389L57.5929 1.818ZM59.3674 3.246C59.4634 3.058 59.5994 2.912 59.7754 2.808C59.9554 2.704 60.1734 2.652 60.4294 2.652V3.216H60.2854C59.6734 3.216 59.3674 3.548 59.3674 4.212V6H58.8214V2.712H59.3674V3.246ZM64.0597 4.23C64.0597 4.334 64.0537 4.444 64.0417 4.56H61.4137C61.4337 4.884 61.5437 5.138 61.7437 5.322C61.9477 5.502 62.1937 5.592 62.4817 5.592C62.7177 5.592 62.9137 5.538 63.0697 5.43C63.2297 5.318 63.3417 5.17 63.4057 4.986H63.9937C63.9057 5.302 63.7297 5.56 63.4657 5.76C63.2017 5.956 62.8737 6.054 62.4817 6.054C62.1697 6.054 61.8897 5.984 61.6417 5.844C61.3977 5.704 61.2057 5.506 61.0657 5.25C60.9257 4.99 60.8557 4.69 60.8557 4.35C60.8557 4.01 60.9237 3.712 61.0597 3.456C61.1957 3.2 61.3857 3.004 61.6297 2.868C61.8777 2.728 62.1617 2.658 62.4817 2.658C62.7937 2.658 63.0697 2.726 63.3097 2.862C63.5497 2.998 63.7337 3.186 63.8617 3.426C63.9937 3.662 64.0597 3.93 64.0597 4.23ZM63.4957 4.116C63.4957 3.908 63.4497 3.73 63.3577 3.582C63.2657 3.43 63.1397 3.316 62.9797 3.24C62.8237 3.16 62.6497 3.12 62.4577 3.12C62.1817 3.12 61.9457 3.208 61.7497 3.384C61.5577 3.56 61.4477 3.804 61.4197 4.116H63.4957ZM67.982 2.652C68.382 2.652 68.706 2.774 68.954 3.018C69.202 3.258 69.326 3.606 69.326 4.062V6H68.786V4.14C68.786 3.812 68.704 3.562 68.54 3.39C68.376 3.214 68.152 3.126 67.868 3.126C67.58 3.126 67.35 3.216 67.178 3.396C67.01 3.576 66.926 3.838 66.926 4.182V6H66.38V2.712H66.926V3.18C67.034 3.012 67.18 2.882 67.364 2.79C67.552 2.698 67.758 2.652 67.982 2.652ZM71.6519 6.054C71.3439 6.054 71.0639 5.984 70.8119 5.844C70.5639 5.704 70.3679 5.506 70.2239 5.25C70.0839 4.99 70.0139 4.69 70.0139 4.35C70.0139 4.014 70.0859 3.718 70.2299 3.462C70.3779 3.202 70.5779 3.004 70.8299 2.868C71.0819 2.728 71.3639 2.658 71.6759 2.658C71.9879 2.658 72.2699 2.728 72.5219 2.868C72.7739 3.004 72.9719 3.2 73.1159 3.456C73.2639 3.712 73.3379 4.01 73.3379 4.35C73.3379 4.69 73.2619 4.99 73.1099 5.25C72.9619 5.506 72.7599 5.704 72.5039 5.844C72.2479 5.984 71.9639 6.054 71.6519 6.054ZM71.6519 5.574C71.8479 5.574 72.0319 5.528 72.2039 5.436C72.3759 5.344 72.5139 5.206 72.6179 5.022C72.7259 4.838 72.7799 4.614 72.7799 4.35C72.7799 4.086 72.7279 3.862 72.6239 3.678C72.5199 3.494 72.3839 3.358 72.2159 3.27C72.0479 3.178 71.8659 3.132 71.6699 3.132C71.4699 3.132 71.2859 3.178 71.1179 3.27C70.9539 3.358 70.8219 3.494 70.7219 3.678C70.6219 3.862 70.5719 4.086 70.5719 4.35C70.5719 4.618 70.6199 4.844 70.7159 5.028C70.8159 5.212 70.9479 5.35 71.1119 5.442C71.2759 5.53 71.4559 5.574 71.6519 5.574ZM74.7218 3.162V5.1C74.7218 5.26 74.7558 5.374 74.8238 5.442C74.8918 5.506 75.0098 5.538 75.1777 5.538H75.5798V6H75.0878C74.7838 6 74.5558 5.93 74.4038 5.79C74.2518 5.65 74.1758 5.42 74.1758 5.1V3.162H73.7498V2.712H74.1758V1.884H74.7218V2.712H75.5798V3.162H74.7218ZM78.5069 3.162V5.1C78.5069 5.26 78.5409 5.374 78.6089 5.442C78.6769 5.506 78.7949 5.538 78.9629 5.538H79.3649V6H78.8729C78.5689 6 78.3409 5.93 78.1889 5.79C78.0369 5.65 77.9609 5.42 77.9609 5.1V3.162H77.5349V2.712H77.9609V1.884H78.5069V2.712H79.3649V3.162H78.5069ZM81.6585 2.652C81.9065 2.652 82.1305 2.706 82.3305 2.814C82.5305 2.918 82.6865 3.076 82.7985 3.288C82.9145 3.5 82.9725 3.758 82.9725 4.062V6H82.4325V4.14C82.4325 3.812 82.3505 3.562 82.1865 3.39C82.0225 3.214 81.7985 3.126 81.5145 3.126C81.2265 3.126 80.9965 3.216 80.8245 3.396C80.6565 3.576 80.5725 3.838 80.5725 4.182V6H80.0265V1.56H80.5725V3.18C80.6805 3.012 80.8285 2.882 81.0165 2.79C81.2085 2.698 81.4225 2.652 81.6585 2.652ZM86.8643 4.23C86.8643 4.334 86.8583 4.444 86.8463 4.56H84.2183C84.2383 4.884 84.3483 5.138 84.5483 5.322C84.7523 5.502 84.9983 5.592 85.2863 5.592C85.5223 5.592 85.7183 5.538 85.8743 5.43C86.0343 5.318 86.1463 5.17 86.2103 4.986H86.7983C86.7103 5.302 86.5343 5.56 86.2703 5.76C86.0063 5.956 85.6783 6.054 85.2863 6.054C84.9743 6.054 84.6943 5.984 84.4463 5.844C84.2023 5.704 84.0103 5.506 83.8703 5.25C83.7303 4.99 83.6603 4.69 83.6603 4.35C83.6603 4.01 83.7283 3.712 83.8643 3.456C84.0003 3.2 84.1903 3.004 84.4343 2.868C84.6823 2.728 84.9663 2.658 85.2863 2.658C85.5983 2.658 85.8743 2.726 86.1143 2.862C86.3543 2.998 86.5383 3.186 86.6663 3.426C86.7983 3.662 86.8643 3.93 86.8643 4.23ZM86.3003 4.116C86.3003 3.908 86.2543 3.73 86.1623 3.582C86.0703 3.43 85.9443 3.316 85.7843 3.24C85.6283 3.16 85.4543 3.12 85.2623 3.12C84.9863 3.12 84.7503 3.208 84.5543 3.384C84.3623 3.56 84.2523 3.804 84.2243 4.116H86.3003ZM89.4667 2.178C89.3627 2.178 89.2747 2.142 89.2027 2.07C89.1307 1.998 89.0947 1.91 89.0947 1.806C89.0947 1.702 89.1307 1.614 89.2027 1.542C89.2747 1.47 89.3627 1.434 89.4667 1.434C89.5667 1.434 89.6507 1.47 89.7187 1.542C89.7907 1.614 89.8267 1.702 89.8267 1.806C89.8267 1.91 89.7907 1.998 89.7187 2.07C89.6507 2.142 89.5667 2.178 89.4667 2.178ZM89.7307 2.712V6H89.1847V2.712H89.7307ZM92.2632 2.652C92.6632 2.652 92.9872 2.774 93.2352 3.018C93.4832 3.258 93.6072 3.606 93.6072 4.062V6H93.0672V4.14C93.0672 3.812 92.9852 3.562 92.8212 3.39C92.6572 3.214 92.4332 3.126 92.1492 3.126C91.8612 3.126 91.6312 3.216 91.4592 3.396C91.2912 3.576 91.2072 3.838 91.2072 4.182V6H90.6612V2.712H91.2072V3.18C91.3152 3.012 91.4612 2.882 91.6452 2.79C91.8332 2.698 92.0392 2.652 92.2632 2.652ZM95.1651 3.162V5.1C95.1651 5.26 95.1991 5.374 95.2671 5.442C95.3351 5.506 95.4531 5.538 95.6211 5.538H96.0231V6H95.5311C95.2271 6 94.9991 5.93 94.8471 5.79C94.6951 5.65 94.6191 5.42 94.6191 5.1V3.162H94.1931V2.712H94.6191V1.884H95.1651V2.712H96.0231V3.162H95.1651ZM99.6847 4.23C99.6847 4.334 99.6787 4.444 99.6667 4.56H97.0387C97.0587 4.884 97.1687 5.138 97.3687 5.322C97.5727 5.502 97.8187 5.592 98.1067 5.592C98.3427 5.592 98.5387 5.538 98.6947 5.43C98.8547 5.318 98.9667 5.17 99.0307 4.986H99.6187C99.5307 5.302 99.3547 5.56 99.0907 5.76C98.8267 5.956 98.4987 6.054 98.1067 6.054C97.7947 6.054 97.5147 5.984 97.2667 5.844C97.0227 5.704 96.8307 5.506 96.6907 5.25C96.5507 4.99 96.4807 4.69 96.4807 4.35C96.4807 4.01 96.5487 3.712 96.6847 3.456C96.8207 3.2 97.0107 3.004 97.2547 2.868C97.5027 2.728 97.7867 2.658 98.1067 2.658C98.4187 2.658 98.6947 2.726 98.9347 2.862C99.1747 2.998 99.3587 3.186 99.4867 3.426C99.6187 3.662 99.6847 3.93 99.6847 4.23ZM99.1207 4.116C99.1207 3.908 99.0747 3.73 98.9827 3.582C98.8907 3.43 98.7647 3.316 98.6047 3.24C98.4487 3.16 98.2747 3.12 98.0827 3.12C97.8067 3.12 97.5707 3.208 97.3747 3.384C97.1827 3.56 97.0727 3.804 97.0447 4.116H99.1207ZM102.007 2.652C102.407 2.652 102.731 2.774 102.979 3.018C103.227 3.258 103.351 3.606 103.351 4.062V6H102.811V4.14C102.811 3.812 102.729 3.562 102.565 3.39C102.401 3.214 102.177 3.126 101.893 3.126C101.605 3.126 101.375 3.216 101.203 3.396C101.035 3.576 100.951 3.838 100.951 4.182V6H100.405V2.712H100.951V3.18C101.059 3.012 101.205 2.882 101.389 2.79C101.577 2.698 101.783 2.652 102.007 2.652ZM104.039 4.344C104.039 4.008 104.107 3.714 104.243 3.462C104.379 3.206 104.565 3.008 104.801 2.868C105.041 2.728 105.309 2.658 105.605 2.658C105.861 2.658 106.099 2.718 106.319 2.838C106.539 2.954 106.707 3.108 106.823 3.3V1.56H107.375V6H106.823V5.382C106.715 5.578 106.555 5.74 106.343 5.868C106.131 5.992 105.883 6.054 105.599 6.054C105.307 6.054 105.041 5.982 104.801 5.838C104.565 5.694 104.379 5.492 104.243 5.232C104.107 4.972 104.039 4.676 104.039 4.344ZM106.823 4.35C106.823 4.102 106.773 3.886 106.673 3.702C106.573 3.518 106.437 3.378 106.265 3.282C106.097 3.182 105.911 3.132 105.707 3.132C105.503 3.132 105.317 3.18 105.149 3.276C104.981 3.372 104.847 3.512 104.747 3.696C104.647 3.88 104.597 4.096 104.597 4.344C104.597 4.596 104.647 4.816 104.747 5.004C104.847 5.188 104.981 5.33 105.149 5.43C105.317 5.526 105.503 5.574 105.707 5.574C105.911 5.574 106.097 5.526 106.265 5.43C106.437 5.33 106.573 5.188 106.673 5.004C106.773 4.816 106.823 4.598 106.823 4.35ZM111.298 4.23C111.298 4.334 111.292 4.444 111.28 4.56H108.652C108.672 4.884 108.782 5.138 108.982 5.322C109.186 5.502 109.432 5.592 109.72 5.592C109.956 5.592 110.152 5.538 110.308 5.43C110.468 5.318 110.58 5.17 110.644 4.986H111.232C111.144 5.302 110.968 5.56 110.704 5.76C110.44 5.956 110.112 6.054 109.72 6.054C109.408 6.054 109.128 5.984 108.88 5.844C108.636 5.704 108.444 5.506 108.304 5.25C108.164 4.99 108.094 4.69 108.094 4.35C108.094 4.01 108.162 3.712 108.298 3.456C108.434 3.2 108.624 3.004 108.868 2.868C109.116 2.728 109.4 2.658 109.72 2.658C110.032 2.658 110.308 2.726 110.548 2.862C110.788 2.998 110.972 3.186 111.1 3.426C111.232 3.662 111.298 3.93 111.298 4.23ZM110.734 4.116C110.734 3.908 110.688 3.73 110.596 3.582C110.504 3.43 110.378 3.316 110.218 3.24C110.062 3.16 109.888 3.12 109.696 3.12C109.42 3.12 109.184 3.208 108.988 3.384C108.796 3.56 108.686 3.804 108.658 4.116H110.734ZM111.815 4.344C111.815 4.008 111.883 3.714 112.019 3.462C112.155 3.206 112.341 3.008 112.577 2.868C112.817 2.728 113.085 2.658 113.381 2.658C113.637 2.658 113.875 2.718 114.095 2.838C114.315 2.954 114.483 3.108 114.599 3.3V1.56H115.151V6H114.599V5.382C114.491 5.578 114.331 5.74 114.119 5.868C113.907 5.992 113.659 6.054 113.375 6.054C113.083 6.054 112.817 5.982 112.577 5.838C112.341 5.694 112.155 5.492 112.019 5.232C111.883 4.972 111.815 4.676 111.815 4.344ZM114.599 4.35C114.599 4.102 114.549 3.886 114.449 3.702C114.349 3.518 114.213 3.378 114.041 3.282C113.873 3.182 113.687 3.132 113.483 3.132C113.279 3.132 113.093 3.18 112.925 3.276C112.757 3.372 112.623 3.512 112.523 3.696C112.423 3.88 112.373 4.096 112.373 4.344C112.373 4.596 112.423 4.816 112.523 5.004C112.623 5.188 112.757 5.33 112.925 5.43C113.093 5.526 113.279 5.574 113.483 5.574C113.687 5.574 113.873 5.526 114.041 5.43C114.213 5.33 114.349 5.188 114.449 5.004C114.549 4.816 114.599 4.598 114.599 4.35ZM118.219 3.246C118.315 3.058 118.451 2.912 118.627 2.808C118.807 2.704 119.025 2.652 119.281 2.652V3.216H119.137C118.525 3.216 118.219 3.548 118.219 4.212V6H117.673V2.712H118.219V3.246ZM122.911 4.23C122.911 4.334 122.905 4.444 122.893 4.56H120.265C120.285 4.884 120.395 5.138 120.595 5.322C120.799 5.502 121.045 5.592 121.333 5.592C121.569 5.592 121.765 5.538 121.921 5.43C122.081 5.318 122.193 5.17 122.257 4.986H122.845C122.757 5.302 122.581 5.56 122.317 5.76C122.053 5.956 121.725 6.054 121.333 6.054C121.021 6.054 120.741 5.984 120.493 5.844C120.249 5.704 120.057 5.506 119.917 5.25C119.777 4.99 119.707 4.69 119.707 4.35C119.707 4.01 119.775 3.712 119.911 3.456C120.047 3.2 120.237 3.004 120.481 2.868C120.729 2.728 121.013 2.658 121.333 2.658C121.645 2.658 121.921 2.726 122.161 2.862C122.401 2.998 122.585 3.186 122.713 3.426C122.845 3.662 122.911 3.93 122.911 4.23ZM122.347 4.116C122.347 3.908 122.301 3.73 122.209 3.582C122.117 3.43 121.991 3.316 121.831 3.24C121.675 3.16 121.501 3.12 121.309 3.12C121.033 3.12 120.797 3.208 120.601 3.384C120.409 3.56 120.299 3.804 120.271 4.116H122.347ZM123.428 4.35C123.428 4.01 123.496 3.714 123.632 3.462C123.768 3.206 123.956 3.008 124.196 2.868C124.44 2.728 124.718 2.658 125.03 2.658C125.434 2.658 125.766 2.756 126.026 2.952C126.29 3.148 126.464 3.42 126.548 3.768H125.96C125.904 3.568 125.794 3.41 125.63 3.294C125.47 3.178 125.27 3.12 125.03 3.12C124.718 3.12 124.466 3.228 124.274 3.444C124.082 3.656 123.986 3.958 123.986 4.35C123.986 4.746 124.082 5.052 124.274 5.268C124.466 5.484 124.718 5.592 125.03 5.592C125.27 5.592 125.47 5.536 125.63 5.424C125.79 5.312 125.9 5.152 125.96 4.944H126.548C126.46 5.28 126.284 5.55 126.02 5.754C125.756 5.954 125.426 6.054 125.03 6.054C124.718 6.054 124.44 5.984 124.196 5.844C123.956 5.704 123.768 5.506 123.632 5.25C123.496 4.994 123.428 4.694 123.428 4.35ZM127.558 2.178C127.454 2.178 127.366 2.142 127.294 2.07C127.222 1.998 127.186 1.91 127.186 1.806C127.186 1.702 127.222 1.614 127.294 1.542C127.366 1.47 127.454 1.434 127.558 1.434C127.658 1.434 127.742 1.47 127.81 1.542C127.882 1.614 127.918 1.702 127.918 1.806C127.918 1.91 127.882 1.998 127.81 2.07C127.742 2.142 127.658 2.178 127.558 2.178ZM127.822 2.712V6H127.276V2.712H127.822ZM129.299 3.318C129.407 3.13 129.567 2.974 129.779 2.85C129.995 2.722 130.245 2.658 130.529 2.658C130.821 2.658 131.085 2.728 131.321 2.868C131.561 3.008 131.749 3.206 131.885 3.462C132.021 3.714 132.089 4.008 132.089 4.344C132.089 4.676 132.021 4.972 131.885 5.232C131.749 5.492 131.561 5.694 131.321 5.838C131.085 5.982 130.821 6.054 130.529 6.054C130.249 6.054 130.001 5.992 129.785 5.868C129.573 5.74 129.411 5.582 129.299 5.394V7.56H128.753V2.712H129.299V3.318ZM131.531 4.344C131.531 4.096 131.481 3.88 131.381 3.696C131.281 3.512 131.145 3.372 130.973 3.276C130.805 3.18 130.619 3.132 130.415 3.132C130.215 3.132 130.029 3.182 129.857 3.282C129.689 3.378 129.553 3.52 129.449 3.708C129.349 3.892 129.299 4.106 129.299 4.35C129.299 4.598 129.349 4.816 129.449 5.004C129.553 5.188 129.689 5.33 129.857 5.43C130.029 5.526 130.215 5.574 130.415 5.574C130.619 5.574 130.805 5.526 130.973 5.43C131.145 5.33 131.281 5.188 131.381 5.004C131.481 4.816 131.531 4.596 131.531 4.344ZM133.09 2.178C132.986 2.178 132.898 2.142 132.826 2.07C132.754 1.998 132.718 1.91 132.718 1.806C132.718 1.702 132.754 1.614 132.826 1.542C132.898 1.47 132.986 1.434 133.09 1.434C133.19 1.434 133.274 1.47 133.342 1.542C133.414 1.614 133.45 1.702 133.45 1.806C133.45 1.91 133.414 1.998 133.342 2.07C133.274 2.142 133.19 2.178 133.09 2.178ZM133.354 2.712V6H132.808V2.712H133.354ZM137.284 4.23C137.284 4.334 137.278 4.444 137.266 4.56H134.638C134.658 4.884 134.768 5.138 134.968 5.322C135.172 5.502 135.418 5.592 135.706 5.592C135.942 5.592 136.138 5.538 136.294 5.43C136.454 5.318 136.566 5.17 136.63 4.986H137.218C137.13 5.302 136.954 5.56 136.69 5.76C136.426 5.956 136.098 6.054 135.706 6.054C135.394 6.054 135.114 5.984 134.866 5.844C134.622 5.704 134.43 5.506 134.29 5.25C134.15 4.99 134.08 4.69 134.08 4.35C134.08 4.01 134.148 3.712 134.284 3.456C134.42 3.2 134.61 3.004 134.854 2.868C135.102 2.728 135.386 2.658 135.706 2.658C136.018 2.658 136.294 2.726 136.534 2.862C136.774 2.998 136.958 3.186 137.086 3.426C137.218 3.662 137.284 3.93 137.284 4.23ZM136.72 4.116C136.72 3.908 136.674 3.73 136.582 3.582C136.49 3.43 136.364 3.316 136.204 3.24C136.048 3.16 135.874 3.12 135.682 3.12C135.406 3.12 135.17 3.208 134.974 3.384C134.782 3.56 134.672 3.804 134.644 4.116H136.72ZM139.607 2.652C140.007 2.652 140.331 2.774 140.579 3.018C140.827 3.258 140.951 3.606 140.951 4.062V6H140.411V4.14C140.411 3.812 140.329 3.562 140.165 3.39C140.001 3.214 139.777 3.126 139.493 3.126C139.205 3.126 138.975 3.216 138.803 3.396C138.635 3.576 138.551 3.838 138.551 4.182V6H138.005V2.712H138.551V3.18C138.659 3.012 138.805 2.882 138.989 2.79C139.177 2.698 139.383 2.652 139.607 2.652ZM142.509 3.162V5.1C142.509 5.26 142.543 5.374 142.611 5.442C142.679 5.506 142.797 5.538 142.965 5.538H143.367V6H142.875C142.571 6 142.343 5.93 142.191 5.79C142.039 5.65 141.963 5.42 141.963 5.1V3.162H141.537V2.712H141.963V1.884H142.509V2.712H143.367V3.162H142.509ZM144.592 5.244L143.92 6.858H143.554L143.992 5.244H144.592ZM147.363 3.318C147.471 3.13 147.631 2.974 147.843 2.85C148.059 2.722 148.309 2.658 148.593 2.658C148.885 2.658 149.149 2.728 149.385 2.868C149.625 3.008 149.813 3.206 149.949 3.462C150.085 3.714 150.153 4.008 150.153 4.344C150.153 4.676 150.085 4.972 149.949 5.232C149.813 5.492 149.625 5.694 149.385 5.838C149.149 5.982 148.885 6.054 148.593 6.054C148.313 6.054 148.065 5.992 147.849 5.868C147.637 5.74 147.475 5.582 147.363 5.394V7.56H146.817V2.712H147.363V3.318ZM149.595 4.344C149.595 4.096 149.545 3.88 149.445 3.696C149.345 3.512 149.209 3.372 149.037 3.276C148.869 3.18 148.683 3.132 148.479 3.132C148.279 3.132 148.093 3.182 147.921 3.282C147.753 3.378 147.617 3.52 147.513 3.708C147.413 3.892 147.363 4.106 147.363 4.35C147.363 4.598 147.413 4.816 147.513 5.004C147.617 5.188 147.753 5.33 147.921 5.43C148.093 5.526 148.279 5.574 148.479 5.574C148.683 5.574 148.869 5.526 149.037 5.43C149.209 5.33 149.345 5.188 149.445 5.004C149.545 4.816 149.595 4.596 149.595 4.344ZM151.418 1.56V6H150.872V1.56H151.418ZM155.349 4.23C155.349 4.334 155.343 4.444 155.331 4.56H152.703C152.723 4.884 152.833 5.138 153.033 5.322C153.237 5.502 153.483 5.592 153.771 5.592C154.007 5.592 154.203 5.538 154.359 5.43C154.519 5.318 154.631 5.17 154.695 4.986H155.283C155.195 5.302 155.019 5.56 154.755 5.76C154.491 5.956 154.163 6.054 153.771 6.054C153.459 6.054 153.179 5.984 152.931 5.844C152.687 5.704 152.495 5.506 152.355 5.25C152.215 4.99 152.145 4.69 152.145 4.35C152.145 4.01 152.213 3.712 152.349 3.456C152.485 3.2 152.675 3.004 152.919 2.868C153.167 2.728 153.451 2.658 153.771 2.658C154.083 2.658 154.359 2.726 154.599 2.862C154.839 2.998 155.023 3.186 155.151 3.426C155.283 3.662 155.349 3.93 155.349 4.23ZM154.785 4.116C154.785 3.908 154.739 3.73 154.647 3.582C154.555 3.43 154.429 3.316 154.269 3.24C154.113 3.16 153.939 3.12 153.747 3.12C153.471 3.12 153.235 3.208 153.039 3.384C152.847 3.56 152.737 3.804 152.709 4.116H154.785ZM155.865 4.344C155.865 4.008 155.933 3.714 156.069 3.462C156.205 3.206 156.391 3.008 156.627 2.868C156.867 2.728 157.133 2.658 157.425 2.658C157.713 2.658 157.963 2.72 158.175 2.844C158.387 2.968 158.545 3.124 158.649 3.312V2.712H159.201V6H158.649V5.388C158.541 5.58 158.379 5.74 158.163 5.868C157.951 5.992 157.703 6.054 157.419 6.054C157.127 6.054 156.863 5.982 156.627 5.838C156.391 5.694 156.205 5.492 156.069 5.232C155.933 4.972 155.865 4.676 155.865 4.344ZM158.649 4.35C158.649 4.102 158.599 3.886 158.499 3.702C158.399 3.518 158.263 3.378 158.091 3.282C157.923 3.182 157.737 3.132 157.533 3.132C157.329 3.132 157.143 3.18 156.975 3.276C156.807 3.372 156.673 3.512 156.573 3.696C156.473 3.88 156.423 4.096 156.423 4.344C156.423 4.596 156.473 4.816 156.573 5.004C156.673 5.188 156.807 5.33 156.975 5.43C157.143 5.526 157.329 5.574 157.533 5.574C157.737 5.574 157.923 5.526 158.091 5.43C158.263 5.33 158.399 5.188 158.499 5.004C158.599 4.816 158.649 4.598 158.649 4.35ZM161.288 6.054C161.036 6.054 160.81 6.012 160.61 5.928C160.41 5.84 160.252 5.72 160.136 5.568C160.02 5.412 159.956 5.234 159.944 5.034H160.508C160.524 5.198 160.6 5.332 160.736 5.436C160.876 5.54 161.058 5.592 161.282 5.592C161.49 5.592 161.654 5.546 161.774 5.454C161.894 5.362 161.954 5.246 161.954 5.106C161.954 4.962 161.89 4.856 161.762 4.788C161.634 4.716 161.436 4.646 161.168 4.578C160.924 4.514 160.724 4.45 160.568 4.386C160.416 4.318 160.284 4.22 160.172 4.092C160.064 3.96 160.01 3.788 160.01 3.576C160.01 3.408 160.06 3.254 160.16 3.114C160.26 2.974 160.402 2.864 160.586 2.784C160.77 2.7 160.98 2.658 161.216 2.658C161.58 2.658 161.874 2.75 162.098 2.934C162.322 3.118 162.442 3.37 162.458 3.69H161.912C161.9 3.518 161.83 3.38 161.702 3.276C161.578 3.172 161.41 3.12 161.198 3.12C161.002 3.12 160.846 3.162 160.73 3.246C160.614 3.33 160.556 3.44 160.556 3.576C160.556 3.684 160.59 3.774 160.658 3.846C160.73 3.914 160.818 3.97 160.922 4.014C161.03 4.054 161.178 4.1 161.366 4.152C161.602 4.216 161.794 4.28 161.942 4.344C162.09 4.404 162.216 4.496 162.32 4.62C162.428 4.744 162.484 4.906 162.488 5.106C162.488 5.286 162.438 5.448 162.338 5.592C162.238 5.736 162.096 5.85 161.912 5.934C161.732 6.014 161.524 6.054 161.288 6.054ZM166.259 4.23C166.259 4.334 166.253 4.444 166.241 4.56H163.613C163.633 4.884 163.743 5.138 163.943 5.322C164.147 5.502 164.393 5.592 164.681 5.592C164.917 5.592 165.113 5.538 165.269 5.43C165.429 5.318 165.541 5.17 165.605 4.986H166.193C166.105 5.302 165.929 5.56 165.665 5.76C165.401 5.956 165.073 6.054 164.681 6.054C164.369 6.054 164.089 5.984 163.841 5.844C163.597 5.704 163.405 5.506 163.265 5.25C163.125 4.99 163.055 4.69 163.055 4.35C163.055 4.01 163.123 3.712 163.259 3.456C163.395 3.2 163.585 3.004 163.829 2.868C164.077 2.728 164.361 2.658 164.681 2.658C164.993 2.658 165.269 2.726 165.509 2.862C165.749 2.998 165.933 3.186 166.061 3.426C166.193 3.662 166.259 3.93 166.259 4.23ZM165.695 4.116C165.695 3.908 165.649 3.73 165.557 3.582C165.465 3.43 165.339 3.316 165.179 3.24C165.023 3.16 164.849 3.12 164.657 3.12C164.381 3.12 164.145 3.208 163.949 3.384C163.757 3.56 163.647 3.804 163.619 4.116H165.695ZM168.375 4.344C168.375 4.008 168.443 3.714 168.579 3.462C168.715 3.206 168.901 3.008 169.137 2.868C169.377 2.728 169.645 2.658 169.941 2.658C170.197 2.658 170.435 2.718 170.655 2.838C170.875 2.954 171.043 3.108 171.159 3.3V1.56H171.711V6H171.159V5.382C171.051 5.578 170.891 5.74 170.679 5.868C170.467 5.992 170.219 6.054 169.935 6.054C169.643 6.054 169.377 5.982 169.137 5.838C168.901 5.694 168.715 5.492 168.579 5.232C168.443 4.972 168.375 4.676 168.375 4.344ZM171.159 4.35C171.159 4.102 171.109 3.886 171.009 3.702C170.909 3.518 170.773 3.378 170.601 3.282C170.433 3.182 170.247 3.132 170.043 3.132C169.839 3.132 169.653 3.18 169.485 3.276C169.317 3.372 169.183 3.512 169.083 3.696C168.983 3.88 168.933 4.096 168.933 4.344C168.933 4.596 168.983 4.816 169.083 5.004C169.183 5.188 169.317 5.33 169.485 5.43C169.653 5.526 169.839 5.574 170.043 5.574C170.247 5.574 170.433 5.526 170.601 5.43C170.773 5.33 170.909 5.188 171.009 5.004C171.109 4.816 171.159 4.598 171.159 4.35ZM175.634 4.23C175.634 4.334 175.628 4.444 175.616 4.56H172.988C173.008 4.884 173.118 5.138 173.318 5.322C173.522 5.502 173.768 5.592 174.056 5.592C174.292 5.592 174.488 5.538 174.644 5.43C174.804 5.318 174.916 5.17 174.98 4.986H175.568C175.48 5.302 175.304 5.56 175.04 5.76C174.776 5.956 174.448 6.054 174.056 6.054C173.744 6.054 173.464 5.984 173.216 5.844C172.972 5.704 172.78 5.506 172.64 5.25C172.5 4.99 172.43 4.69 172.43 4.35C172.43 4.01 172.498 3.712 172.634 3.456C172.77 3.2 172.96 3.004 173.204 2.868C173.452 2.728 173.736 2.658 174.056 2.658C174.368 2.658 174.644 2.726 174.884 2.862C175.124 2.998 175.308 3.186 175.436 3.426C175.568 3.662 175.634 3.93 175.634 4.23ZM175.07 4.116C175.07 3.908 175.024 3.73 174.932 3.582C174.84 3.43 174.714 3.316 174.554 3.24C174.398 3.16 174.224 3.12 174.032 3.12C173.756 3.12 173.52 3.208 173.324 3.384C173.132 3.56 173.022 3.804 172.994 4.116H175.07ZM176.901 1.56V6H176.355V1.56H176.901ZM180.831 4.23C180.831 4.334 180.825 4.444 180.813 4.56H178.185C178.205 4.884 178.315 5.138 178.515 5.322C178.719 5.502 178.965 5.592 179.253 5.592C179.489 5.592 179.685 5.538 179.841 5.43C180.001 5.318 180.113 5.17 180.177 4.986H180.765C180.677 5.302 180.501 5.56 180.237 5.76C179.973 5.956 179.645 6.054 179.253 6.054C178.941 6.054 178.661 5.984 178.413 5.844C178.169 5.704 177.977 5.506 177.837 5.25C177.697 4.99 177.627 4.69 177.627 4.35C177.627 4.01 177.695 3.712 177.831 3.456C177.967 3.2 178.157 3.004 178.401 2.868C178.649 2.728 178.933 2.658 179.253 2.658C179.565 2.658 179.841 2.726 180.081 2.862C180.321 2.998 180.505 3.186 180.633 3.426C180.765 3.662 180.831 3.93 180.831 4.23ZM180.267 4.116C180.267 3.908 180.221 3.73 180.129 3.582C180.037 3.43 179.911 3.316 179.751 3.24C179.595 3.16 179.421 3.12 179.229 3.12C178.953 3.12 178.717 3.208 178.521 3.384C178.329 3.56 178.219 3.804 178.191 4.116H180.267ZM182.218 3.162V5.1C182.218 5.26 182.252 5.374 182.32 5.442C182.388 5.506 182.506 5.538 182.674 5.538H183.076V6H182.584C182.28 6 182.052 5.93 181.9 5.79C181.748 5.65 181.672 5.42 181.672 5.1V3.162H181.246V2.712H181.672V1.884H182.218V2.712H183.076V3.162H182.218ZM186.737 4.23C186.737 4.334 186.731 4.444 186.719 4.56H184.091C184.111 4.884 184.221 5.138 184.421 5.322C184.625 5.502 184.871 5.592 185.159 5.592C185.395 5.592 185.591 5.538 185.747 5.43C185.907 5.318 186.019 5.17 186.083 4.986H186.671C186.583 5.302 186.407 5.56 186.143 5.76C185.879 5.956 185.551 6.054 185.159 6.054C184.847 6.054 184.567 5.984 184.319 5.844C184.075 5.704 183.883 5.506 183.743 5.25C183.603 4.99 183.533 4.69 183.533 4.35C183.533 4.01 183.601 3.712 183.737 3.456C183.873 3.2 184.063 3.004 184.307 2.868C184.555 2.728 184.839 2.658 185.159 2.658C185.471 2.658 185.747 2.726 185.987 2.862C186.227 2.998 186.411 3.186 186.539 3.426C186.671 3.662 186.737 3.93 186.737 4.23ZM186.173 4.116C186.173 3.908 186.127 3.73 186.035 3.582C185.943 3.43 185.817 3.316 185.657 3.24C185.501 3.16 185.327 3.12 185.135 3.12C184.859 3.12 184.623 3.208 184.427 3.384C184.235 3.56 184.125 3.804 184.097 4.116H186.173ZM189.724 3.162V5.1C189.724 5.26 189.758 5.374 189.826 5.442C189.894 5.506 190.012 5.538 190.18 5.538H190.582V6H190.09C189.786 6 189.558 5.93 189.406 5.79C189.254 5.65 189.178 5.42 189.178 5.1V3.162H188.752V2.712H189.178V1.884H189.724V2.712H190.582V3.162H189.724ZM192.875 2.652C193.123 2.652 193.347 2.706 193.547 2.814C193.747 2.918 193.903 3.076 194.015 3.288C194.131 3.5 194.189 3.758 194.189 4.062V6H193.649V4.14C193.649 3.812 193.567 3.562 193.403 3.39C193.239 3.214 193.015 3.126 192.731 3.126C192.443 3.126 192.213 3.216 192.041 3.396C191.873 3.576 191.789 3.838 191.789 4.182V6H191.243V1.56H191.789V3.18C191.897 3.012 192.045 2.882 192.233 2.79C192.425 2.698 192.639 2.652 192.875 2.652ZM195.363 2.178C195.259 2.178 195.171 2.142 195.099 2.07C195.027 1.998 194.991 1.91 194.991 1.806C194.991 1.702 195.027 1.614 195.099 1.542C195.171 1.47 195.259 1.434 195.363 1.434C195.463 1.434 195.547 1.47 195.615 1.542C195.687 1.614 195.723 1.702 195.723 1.806C195.723 1.91 195.687 1.998 195.615 2.07C195.547 2.142 195.463 2.178 195.363 2.178ZM195.627 2.712V6H195.081V2.712H195.627ZM197.722 6.054C197.47 6.054 197.244 6.012 197.044 5.928C196.844 5.84 196.686 5.72 196.57 5.568C196.454 5.412 196.39 5.234 196.378 5.034H196.942C196.958 5.198 197.034 5.332 197.17 5.436C197.31 5.54 197.492 5.592 197.716 5.592C197.924 5.592 198.088 5.546 198.208 5.454C198.328 5.362 198.388 5.246 198.388 5.106C198.388 4.962 198.324 4.856 198.196 4.788C198.068 4.716 197.87 4.646 197.602 4.578C197.358 4.514 197.158 4.45 197.002 4.386C196.85 4.318 196.718 4.22 196.606 4.092C196.498 3.96 196.444 3.788 196.444 3.576C196.444 3.408 196.494 3.254 196.594 3.114C196.694 2.974 196.836 2.864 197.02 2.784C197.204 2.7 197.414 2.658 197.65 2.658C198.014 2.658 198.308 2.75 198.532 2.934C198.756 3.118 198.876 3.37 198.892 3.69H198.346C198.334 3.518 198.264 3.38 198.136 3.276C198.012 3.172 197.844 3.12 197.632 3.12C197.436 3.12 197.28 3.162 197.164 3.246C197.048 3.33 196.99 3.44 196.99 3.576C196.99 3.684 197.024 3.774 197.092 3.846C197.164 3.914 197.252 3.97 197.356 4.014C197.464 4.054 197.612 4.1 197.8 4.152C198.036 4.216 198.228 4.28 198.376 4.344C198.524 4.404 198.65 4.496 198.754 4.62C198.862 4.744 198.918 4.906 198.922 5.106C198.922 5.286 198.872 5.448 198.772 5.592C198.672 5.736 198.53 5.85 198.346 5.934C198.166 6.014 197.958 6.054 197.722 6.054ZM204.292 4.23C204.292 4.334 204.286 4.444 204.274 4.56H201.646C201.666 4.884 201.776 5.138 201.976 5.322C202.18 5.502 202.426 5.592 202.714 5.592C202.95 5.592 203.146 5.538 203.302 5.43C203.462 5.318 203.574 5.17 203.638 4.986H204.226C204.138 5.302 203.962 5.56 203.698 5.76C203.434 5.956 203.106 6.054 202.714 6.054C202.402 6.054 202.122 5.984 201.874 5.844C201.63 5.704 201.438 5.506 201.298 5.25C201.158 4.99 201.088 4.69 201.088 4.35C201.088 4.01 201.156 3.712 201.292 3.456C201.428 3.2 201.618 3.004 201.862 2.868C202.11 2.728 202.394 2.658 202.714 2.658C203.026 2.658 203.302 2.726 203.542 2.862C203.782 2.998 203.966 3.186 204.094 3.426C204.226 3.662 204.292 3.93 204.292 4.23ZM203.728 4.116C203.728 3.908 203.682 3.73 203.59 3.582C203.498 3.43 203.372 3.316 203.212 3.24C203.056 3.16 202.882 3.12 202.69 3.12C202.414 3.12 202.178 3.208 201.982 3.384C201.79 3.56 201.68 3.804 201.652 4.116H203.728ZM208.967 2.652C209.223 2.652 209.451 2.706 209.651 2.814C209.851 2.918 210.009 3.076 210.125 3.288C210.241 3.5 210.299 3.758 210.299 4.062V6H209.759V4.14C209.759 3.812 209.677 3.562 209.513 3.39C209.353 3.214 209.135 3.126 208.859 3.126C208.575 3.126 208.349 3.218 208.181 3.402C208.013 3.582 207.929 3.844 207.929 4.188V6H207.389V4.14C207.389 3.812 207.307 3.562 207.143 3.39C206.983 3.214 206.765 3.126 206.489 3.126C206.205 3.126 205.979 3.218 205.811 3.402C205.643 3.582 205.559 3.844 205.559 4.188V6H205.013V2.712H205.559V3.186C205.667 3.014 205.811 2.882 205.991 2.79C206.175 2.698 206.377 2.652 206.597 2.652C206.873 2.652 207.117 2.714 207.329 2.838C207.541 2.962 207.699 3.144 207.803 3.384C207.895 3.152 208.047 2.972 208.259 2.844C208.471 2.716 208.707 2.652 208.967 2.652ZM210.99 4.344C210.99 4.008 211.058 3.714 211.194 3.462C211.33 3.206 211.516 3.008 211.752 2.868C211.992 2.728 212.258 2.658 212.55 2.658C212.838 2.658 213.088 2.72 213.3 2.844C213.512 2.968 213.67 3.124 213.774 3.312V2.712H214.326V6H213.774V5.388C213.666 5.58 213.504 5.74 213.288 5.868C213.076 5.992 212.828 6.054 212.544 6.054C212.252 6.054 211.988 5.982 211.752 5.838C211.516 5.694 211.33 5.492 211.194 5.232C211.058 4.972 210.99 4.676 210.99 4.344ZM213.774 4.35C213.774 4.102 213.724 3.886 213.624 3.702C213.524 3.518 213.388 3.378 213.216 3.282C213.048 3.182 212.862 3.132 212.658 3.132C212.454 3.132 212.268 3.18 212.1 3.276C211.932 3.372 211.798 3.512 211.698 3.696C211.598 3.88 211.548 4.096 211.548 4.344C211.548 4.596 211.598 4.816 211.698 5.004C211.798 5.188 211.932 5.33 212.1 5.43C212.268 5.526 212.454 5.574 212.658 5.574C212.862 5.574 213.048 5.526 213.216 5.43C213.388 5.33 213.524 5.188 213.624 5.004C213.724 4.816 213.774 4.598 213.774 4.35ZM215.531 2.178C215.427 2.178 215.339 2.142 215.267 2.07C215.195 1.998 215.159 1.91 215.159 1.806C215.159 1.702 215.195 1.614 215.267 1.542C215.339 1.47 215.427 1.434 215.531 1.434C215.631 1.434 215.715 1.47 215.783 1.542C215.855 1.614 215.891 1.702 215.891 1.806C215.891 1.91 215.855 1.998 215.783 2.07C215.715 2.142 215.631 2.178 215.531 2.178ZM215.795 2.712V6H215.249V2.712H215.795ZM217.272 1.56V6H216.726V1.56H217.272ZM218.376 6.036C218.272 6.036 218.184 6 218.112 5.928C218.04 5.856 218.004 5.768 218.004 5.664C218.004 5.56 218.04 5.472 218.112 5.4C218.184 5.328 218.272 5.292 218.376 5.292C218.476 5.292 218.56 5.328 218.628 5.4C218.7 5.472 218.736 5.56 218.736 5.664C218.736 5.768 218.7 5.856 218.628 5.928C218.56 6 218.476 6.036 218.376 6.036Z" fill="#6E6B6B"/>
</g>
<defs>
<filter id="filter0_d_104_68" x="0.769714" y="0.416016" width="218.966" height="8.14398" filterUnits="userSpaceOnUse" color-interpolation-filters="sRGB">
<feFlood flood-opacity="0" result="BackgroundImageFix"/>
<feColorMatrix in="SourceAlpha" type="matrix" values="0 0 0 0 0 0 0 0 0 0 0 0 0 0 0 0 0 0 127 0" result="hardAlpha"/>
<feOffset/>
<feGaussianBlur stdDeviation="0.5"/>
<feComposite in2="hardAlpha" operator="out"/>
<feColorMatrix type="matrix" values="0 0 0 0 1 0 0 0 0 1 0 0 0 0 1 0 0 0 0.6 0"/>
<feBlend mode="normal" in2="BackgroundImageFix" result="effect1_dropShadow_104_68"/>
<feBlend mode="normal" in="SourceGraphic" in2="effect1_dropShadow_104_68" result="shape"/>
</filter>
</defs>
</svg>
