<svg width="149" height="15" viewBox="0 0 149 15" fill="none" xmlns="http://www.w3.org/2000/svg">
<path d="M1.66665 5.66998H8.33331C8.79165 5.66998 9.16665 6.04498 9.16665 6.50332V11.5033C9.16665 11.9616 8.79165 12.3366 8.33331 12.3366H1.66665C1.20831 12.3366 0.833313 11.9616 0.833313 11.5033V6.50332C0.833313 6.04498 1.20831 5.66998 1.66665 5.66998Z" stroke="#525252" stroke-linecap="round" stroke-linejoin="round"/>
<path d="M9.16665 6.5L4.99998 9.41667L0.833313 6.5" stroke="#525252" stroke-linecap="round" stroke-linejoin="round"/>
<path d="M18.072 14.508C17.704 14.508 17.396 14.448 17.148 14.328C16.892 14.208 16.664 14.036 16.464 13.812L17.16 13.104C17.272 13.24 17.396 13.34 17.532 13.404C17.66 13.468 17.816 13.5 18 13.5C18.24 13.5 18.448 13.424 18.624 13.272C18.8 13.128 18.888 12.908 18.888 12.612V6.3H19.968V12.6C19.968 13.016 19.88 13.364 19.704 13.644C19.528 13.924 19.296 14.136 19.008 14.28C18.72 14.432 18.408 14.508 18.072 14.508ZM19.44 5.16C19.248 5.16 19.088 5.096 18.96 4.968C18.832 4.832 18.768 4.664 18.768 4.464C18.768 4.272 18.832 4.112 18.96 3.984C19.088 3.848 19.248 3.78 19.44 3.78C19.64 3.78 19.804 3.848 19.932 3.984C20.06 4.112 20.124 4.272 20.124 4.464C20.124 4.664 20.06 4.832 19.932 4.968C19.804 5.096 19.64 5.16 19.44 5.16ZM23.9816 12.12C23.4616 12.12 22.9896 11.992 22.5656 11.736C22.1416 11.472 21.8056 11.116 21.5576 10.668C21.3176 10.22 21.1976 9.716 21.1976 9.156C21.1976 8.596 21.3176 8.092 21.5576 7.644C21.8056 7.196 22.1376 6.84 22.5536 6.576C22.9776 6.312 23.4536 6.18 23.9816 6.18C24.4136 6.18 24.7976 6.272 25.1336 6.456C25.4776 6.632 25.7536 6.88 25.9616 7.2C26.1696 7.512 26.2856 7.876 26.3096 8.292V10.008C26.2856 10.416 26.1696 10.78 25.9616 11.1C25.7616 11.42 25.4896 11.672 25.1456 11.856C24.8096 12.032 24.4216 12.12 23.9816 12.12ZM24.1616 11.1C24.6976 11.1 25.1296 10.92 25.4576 10.56C25.7856 10.192 25.9496 9.724 25.9496 9.156C25.9496 8.764 25.8736 8.424 25.7216 8.136C25.5776 7.84 25.3696 7.612 25.0976 7.452C24.8256 7.284 24.5096 7.2 24.1496 7.2C23.7896 7.2 23.4696 7.284 23.1896 7.452C22.9176 7.62 22.7016 7.852 22.5416 8.148C22.3896 8.436 22.3136 8.768 22.3136 9.144C22.3136 9.528 22.3896 9.868 22.5416 10.164C22.7016 10.452 22.9216 10.68 23.2016 10.848C23.4816 11.016 23.8016 11.1 24.1616 11.1ZM25.8776 12V10.464L26.0816 9.072L25.8776 7.692V6.3H26.9696V12H25.8776ZM30.414 12.048L27.942 6.3H29.142L30.978 10.8H30.594L32.526 6.3H33.726L31.062 12.048H30.414ZM28.782 14.388L30.462 10.944L31.062 12.048L29.982 14.388H28.782ZM38.5974 12V8.676C38.5974 8.244 38.4614 7.888 38.1894 7.608C37.9174 7.328 37.5654 7.188 37.1334 7.188C36.8454 7.188 36.5894 7.252 36.3654 7.38C36.1414 7.508 35.9654 7.684 35.8374 7.908C35.7094 8.132 35.6454 8.388 35.6454 8.676L35.2014 8.424C35.2014 7.992 35.2974 7.608 35.4894 7.272C35.6814 6.936 35.9494 6.672 36.2934 6.48C36.6374 6.28 37.0254 6.18 37.4574 6.18C37.8894 6.18 38.2694 6.288 38.5974 6.504C38.9334 6.72 39.1974 7.004 39.3894 7.356C39.5814 7.7 39.6774 8.068 39.6774 8.46V12H38.5974ZM34.5654 12V6.3H35.6454V12H34.5654ZM43.5637 12.12C43.0437 12.12 42.5717 11.992 42.1477 11.736C41.7237 11.472 41.3877 11.116 41.1397 10.668C40.8997 10.22 40.7797 9.716 40.7797 9.156C40.7797 8.596 40.8997 8.092 41.1397 7.644C41.3877 7.196 41.7197 6.84 42.1357 6.576C42.5597 6.312 43.0357 6.18 43.5637 6.18C43.9957 6.18 44.3797 6.272 44.7157 6.456C45.0597 6.632 45.3357 6.88 45.5437 7.2C45.7517 7.512 45.8677 7.876 45.8917 8.292V10.008C45.8677 10.416 45.7517 10.78 45.5437 11.1C45.3437 11.42 45.0717 11.672 44.7277 11.856C44.3917 12.032 44.0037 12.12 43.5637 12.12ZM43.7437 11.1C44.2797 11.1 44.7117 10.92 45.0397 10.56C45.3677 10.192 45.5317 9.724 45.5317 9.156C45.5317 8.764 45.4557 8.424 45.3037 8.136C45.1597 7.84 44.9517 7.612 44.6797 7.452C44.4077 7.284 44.0917 7.2 43.7317 7.2C43.3717 7.2 43.0517 7.284 42.7717 7.452C42.4997 7.62 42.2837 7.852 42.1237 8.148C41.9717 8.436 41.8957 8.768 41.8957 9.144C41.8957 9.528 41.9717 9.868 42.1237 10.164C42.2837 10.452 42.5037 10.68 42.7837 10.848C43.0637 11.016 43.3837 11.1 43.7437 11.1ZM45.4597 12V10.464L45.6637 9.072L45.4597 7.692V6.3H46.5517V12H45.4597ZM48.124 12V6.3H49.204V12H48.124ZM51.976 12V8.556C51.976 8.132 51.844 7.8 51.58 7.56C51.324 7.312 51 7.188 50.608 7.188C50.344 7.188 50.108 7.244 49.9 7.356C49.692 7.468 49.524 7.624 49.396 7.824C49.268 8.024 49.204 8.264 49.204 8.544L48.76 8.328C48.76 7.896 48.852 7.52 49.036 7.2C49.228 6.88 49.488 6.632 49.816 6.456C50.144 6.272 50.512 6.18 50.92 6.18C51.32 6.18 51.68 6.268 52 6.444C52.328 6.62 52.584 6.868 52.768 7.188C52.96 7.508 53.056 7.888 53.056 8.328V12H51.976ZM55.828 12V8.556C55.828 8.132 55.696 7.8 55.432 7.56C55.176 7.312 54.856 7.188 54.472 7.188C54.208 7.188 53.968 7.244 53.752 7.356C53.544 7.468 53.376 7.624 53.248 7.824C53.12 8.024 53.056 8.264 53.056 8.544L52.444 8.328C52.468 7.888 52.584 7.512 52.792 7.2C53.008 6.88 53.284 6.632 53.62 6.456C53.956 6.272 54.324 6.18 54.724 6.18C55.14 6.18 55.512 6.268 55.84 6.444C56.168 6.62 56.428 6.868 56.62 7.188C56.82 7.508 56.92 7.892 56.92 8.34V12H55.828ZM58.3897 12V6.3H59.4697V12H58.3897ZM62.2417 12V8.556C62.2417 8.132 62.1097 7.8 61.8457 7.56C61.5897 7.312 61.2657 7.188 60.8737 7.188C60.6097 7.188 60.3737 7.244 60.1657 7.356C59.9577 7.468 59.7897 7.624 59.6617 7.824C59.5337 8.024 59.4697 8.264 59.4697 8.544L59.0257 8.328C59.0257 7.896 59.1177 7.52 59.3017 7.2C59.4937 6.88 59.7537 6.632 60.0817 6.456C60.4097 6.272 60.7777 6.18 61.1857 6.18C61.5857 6.18 61.9457 6.268 62.2657 6.444C62.5937 6.62 62.8497 6.868 63.0337 7.188C63.2257 7.508 63.3217 7.888 63.3217 8.328V12H62.2417ZM66.0937 12V8.556C66.0937 8.132 65.9617 7.8 65.6977 7.56C65.4417 7.312 65.1217 7.188 64.7377 7.188C64.4737 7.188 64.2337 7.244 64.0177 7.356C63.8097 7.468 63.6417 7.624 63.5137 7.824C63.3857 8.024 63.3217 8.264 63.3217 8.544L62.7097 8.328C62.7337 7.888 62.8497 7.512 63.0577 7.2C63.2737 6.88 63.5497 6.632 63.8857 6.456C64.2217 6.272 64.5897 6.18 64.9897 6.18C65.4057 6.18 65.7777 6.268 66.1057 6.444C66.4337 6.62 66.6937 6.868 66.8857 7.188C67.0857 7.508 67.1857 7.892 67.1857 8.34V12H66.0937ZM71.2593 12.12C70.6993 12.12 70.1953 11.988 69.7473 11.724C69.2993 11.46 68.9433 11.104 68.6793 10.656C68.4153 10.2 68.2833 9.692 68.2833 9.132C68.2833 8.58 68.4153 8.084 68.6793 7.644C68.9433 7.196 69.2993 6.84 69.7473 6.576C70.1953 6.312 70.6993 6.18 71.2593 6.18C71.8113 6.18 72.3113 6.312 72.7593 6.576C73.2153 6.832 73.5753 7.184 73.8393 7.632C74.1033 8.08 74.2353 8.58 74.2353 9.132C74.2353 9.692 74.1033 10.2 73.8393 10.656C73.5753 11.104 73.2153 11.46 72.7593 11.724C72.3113 11.988 71.8113 12.12 71.2593 12.12ZM71.2593 11.076C71.6193 11.076 71.9393 10.992 72.2193 10.824C72.4993 10.656 72.7193 10.428 72.8793 10.14C73.0393 9.844 73.1193 9.508 73.1193 9.132C73.1193 8.764 73.0353 8.436 72.8673 8.148C72.7073 7.86 72.4873 7.636 72.2073 7.476C71.9353 7.308 71.6193 7.224 71.2593 7.224C70.8993 7.224 70.5793 7.308 70.2993 7.476C70.0193 7.636 69.7993 7.86 69.6393 8.148C69.4793 8.436 69.3993 8.764 69.3993 9.132C69.3993 9.508 69.4793 9.844 69.6393 10.14C69.7993 10.428 70.0193 10.656 70.2993 10.824C70.5793 10.992 70.8993 11.076 71.2593 11.076ZM77.8642 12.12C77.3362 12.12 76.8642 11.992 76.4482 11.736C76.0322 11.472 75.7002 11.116 75.4522 10.668C75.2122 10.22 75.0922 9.716 75.0922 9.156C75.0922 8.596 75.2122 8.092 75.4522 7.644C75.7002 7.196 76.0322 6.84 76.4482 6.576C76.8642 6.312 77.3362 6.18 77.8642 6.18C78.2882 6.18 78.6722 6.272 79.0162 6.456C79.3602 6.632 79.6362 6.88 79.8442 7.2C80.0602 7.512 80.1802 7.876 80.2042 8.292V10.008C80.1802 10.416 80.0642 10.78 79.8562 11.1C79.6482 11.42 79.3722 11.672 79.0282 11.856C78.6842 12.032 78.2962 12.12 77.8642 12.12ZM78.0442 11.1C78.4042 11.1 78.7162 11.016 78.9802 10.848C79.2522 10.68 79.4642 10.452 79.6162 10.164C79.7682 9.868 79.8442 9.532 79.8442 9.156C79.8442 8.764 79.7642 8.424 79.6042 8.136C79.4522 7.848 79.2402 7.62 78.9682 7.452C78.7042 7.284 78.3922 7.2 78.0322 7.2C77.6722 7.2 77.3562 7.284 77.0842 7.452C76.8122 7.62 76.5962 7.852 76.4362 8.148C76.2842 8.436 76.2082 8.768 76.2082 9.144C76.2082 9.528 76.2842 9.868 76.4362 10.164C76.5962 10.452 76.8122 10.68 77.0842 10.848C77.3642 11.016 77.6842 11.1 78.0442 11.1ZM80.8642 12H79.7722V10.464L79.9762 9.072L79.7722 7.692V3.432H80.8642V12ZM82.4485 12V6.3H83.5285V12H82.4485ZM82.9885 5.16C82.7885 5.16 82.6245 5.096 82.4965 4.968C82.3685 4.832 82.3045 4.664 82.3045 4.464C82.3045 4.272 82.3685 4.112 82.4965 3.984C82.6245 3.848 82.7885 3.78 82.9885 3.78C83.1885 3.78 83.3525 3.848 83.4805 3.984C83.6085 4.112 83.6725 4.272 83.6725 4.464C83.6725 4.664 83.6085 4.832 83.4805 4.968C83.3525 5.096 83.1885 5.16 82.9885 5.16ZM88.8641 13.08C88.3201 13.08 87.8081 12.98 87.3281 12.78C86.8561 12.588 86.4441 12.316 86.0921 11.964C85.7401 11.612 85.4641 11.2 85.2641 10.728C85.0641 10.248 84.9641 9.728 84.9641 9.168C84.9641 8.608 85.0641 8.092 85.2641 7.62C85.4721 7.14 85.7561 6.724 86.1161 6.372C86.4761 6.012 86.8961 5.732 87.3761 5.532C87.8641 5.332 88.3841 5.232 88.9361 5.232C89.6721 5.232 90.3201 5.4 90.8801 5.736C91.4481 6.072 91.8921 6.532 92.2121 7.116C92.5401 7.7 92.7041 8.372 92.7041 9.132C92.7041 9.476 92.6681 9.788 92.5961 10.068C92.5321 10.34 92.4241 10.596 92.2721 10.836L91.3481 10.788C91.4601 10.628 91.5481 10.468 91.6121 10.308C91.6841 10.14 91.7361 9.956 91.7681 9.756C91.8001 9.556 91.8161 9.328 91.8161 9.072C91.8161 8.44 91.7001 7.904 91.4681 7.464C91.2441 7.016 90.9161 6.676 90.4841 6.444C90.0601 6.204 89.5481 6.084 88.9481 6.084C88.3401 6.084 87.8041 6.212 87.3401 6.468C86.8841 6.724 86.5281 7.084 86.2721 7.548C86.0241 8.004 85.9001 8.548 85.9001 9.18C85.9001 9.804 86.0201 10.344 86.2601 10.8C86.5081 11.256 86.8561 11.612 87.3041 11.868C87.7521 12.116 88.2641 12.24 88.8401 12.24C89.2641 12.24 89.6441 12.18 89.9801 12.06C90.3161 11.948 90.6121 11.776 90.8681 11.544L91.4681 12.156C91.1161 12.46 90.7201 12.688 90.2801 12.84C89.8401 13 89.3681 13.08 88.8641 13.08ZM88.6481 10.92C88.3361 10.92 88.0521 10.844 87.7961 10.692C87.5481 10.532 87.3441 10.32 87.1841 10.056C87.0321 9.792 86.9561 9.496 86.9561 9.168C86.9561 8.84 87.0321 8.544 87.1841 8.28C87.3441 8.008 87.5481 7.796 87.7961 7.644C88.0521 7.484 88.3361 7.404 88.6481 7.404C89.0321 7.404 89.3441 7.5 89.5841 7.692C89.8321 7.876 89.9561 8.148 89.9561 8.508V9.816C89.9561 10.168 89.8361 10.44 89.5961 10.632C89.3561 10.824 89.0401 10.92 88.6481 10.92ZM88.6961 10.164C88.9841 10.164 89.2121 10.072 89.3801 9.888C89.5561 9.696 89.6441 9.452 89.6441 9.156C89.6441 8.852 89.5561 8.608 89.3801 8.424C89.2121 8.24 88.9841 8.148 88.6961 8.148C88.4321 8.148 88.2081 8.244 88.0241 8.436C87.8481 8.62 87.7601 8.86 87.7601 9.156C87.7601 9.452 87.8481 9.696 88.0241 9.888C88.2001 10.072 88.4241 10.164 88.6961 10.164ZM90.0401 10.836V10.128H92.2721V10.836H90.0401ZM89.7041 10.836V9.948L89.8241 9.108L89.7041 8.304V7.476H90.4841V10.836H89.7041ZM96.4841 14.508C95.9001 14.508 95.3801 14.4 94.9241 14.184C94.4761 13.968 94.1161 13.664 93.8441 13.272L94.5401 12.564C94.7721 12.86 95.0481 13.084 95.3681 13.236C95.6881 13.396 96.0681 13.476 96.5081 13.476C97.0921 13.476 97.5521 13.32 97.8881 13.008C98.2321 12.704 98.4041 12.292 98.4041 11.772V10.356L98.5961 9.072L98.4041 7.8V6.3H99.4841V11.772C99.4841 12.316 99.3561 12.792 99.1001 13.2C98.8521 13.608 98.5001 13.928 98.0441 14.16C97.5961 14.392 97.0761 14.508 96.4841 14.508ZM96.4841 11.904C95.9641 11.904 95.4961 11.78 95.0801 11.532C94.6721 11.284 94.3481 10.944 94.1081 10.512C93.8681 10.072 93.7481 9.58 93.7481 9.036C93.7481 8.492 93.8681 8.008 94.1081 7.584C94.3481 7.152 94.6721 6.812 95.0801 6.564C95.4961 6.308 95.9641 6.18 96.4841 6.18C96.9321 6.18 97.3281 6.268 97.6721 6.444C98.0161 6.62 98.2881 6.868 98.4881 7.188C98.6961 7.5 98.8081 7.868 98.8241 8.292V9.804C98.8001 10.22 98.6841 10.588 98.4761 10.908C98.2761 11.22 98.0041 11.464 97.6601 11.64C97.3161 11.816 96.9241 11.904 96.4841 11.904ZM96.7001 10.884C97.0521 10.884 97.3601 10.808 97.6241 10.656C97.8961 10.504 98.1041 10.292 98.2481 10.02C98.3921 9.74 98.4641 9.416 98.4641 9.048C98.4641 8.68 98.3881 8.36 98.2361 8.088C98.0921 7.808 97.8881 7.592 97.6241 7.44C97.3601 7.28 97.0481 7.2 96.6881 7.2C96.3281 7.2 96.0121 7.28 95.7401 7.44C95.4681 7.592 95.2521 7.808 95.0921 8.088C94.9401 8.36 94.8641 8.676 94.8641 9.036C94.8641 9.396 94.9401 9.716 95.0921 9.996C95.2521 10.276 95.4681 10.496 95.7401 10.656C96.0201 10.808 96.3401 10.884 96.7001 10.884ZM101.069 12V6.3H102.149V12H101.069ZM104.921 12V8.556C104.921 8.132 104.789 7.8 104.525 7.56C104.269 7.312 103.945 7.188 103.553 7.188C103.289 7.188 103.053 7.244 102.845 7.356C102.637 7.468 102.469 7.624 102.341 7.824C102.213 8.024 102.149 8.264 102.149 8.544L101.705 8.328C101.705 7.896 101.797 7.52 101.981 7.2C102.173 6.88 102.433 6.632 102.761 6.456C103.089 6.272 103.457 6.18 103.865 6.18C104.265 6.18 104.625 6.268 104.945 6.444C105.273 6.62 105.529 6.868 105.713 7.188C105.905 7.508 106.001 7.888 106.001 8.328V12H104.921ZM108.773 12V8.556C108.773 8.132 108.641 7.8 108.377 7.56C108.121 7.312 107.801 7.188 107.417 7.188C107.153 7.188 106.913 7.244 106.697 7.356C106.489 7.468 106.321 7.624 106.193 7.824C106.065 8.024 106.001 8.264 106.001 8.544L105.389 8.328C105.413 7.888 105.529 7.512 105.737 7.2C105.953 6.88 106.229 6.632 106.565 6.456C106.901 6.272 107.269 6.18 107.669 6.18C108.085 6.18 108.457 6.268 108.785 6.444C109.113 6.62 109.373 6.868 109.565 7.188C109.765 7.508 109.865 7.892 109.865 8.34V12H108.773ZM113.759 12.12C113.239 12.12 112.767 11.992 112.343 11.736C111.919 11.472 111.583 11.116 111.335 10.668C111.095 10.22 110.975 9.716 110.975 9.156C110.975 8.596 111.095 8.092 111.335 7.644C111.583 7.196 111.915 6.84 112.331 6.576C112.755 6.312 113.231 6.18 113.759 6.18C114.191 6.18 114.575 6.272 114.911 6.456C115.255 6.632 115.531 6.88 115.739 7.2C115.947 7.512 116.063 7.876 116.087 8.292V10.008C116.063 10.416 115.947 10.78 115.739 11.1C115.539 11.42 115.267 11.672 114.923 11.856C114.587 12.032 114.199 12.12 113.759 12.12ZM113.939 11.1C114.475 11.1 114.907 10.92 115.235 10.56C115.563 10.192 115.727 9.724 115.727 9.156C115.727 8.764 115.651 8.424 115.499 8.136C115.355 7.84 115.147 7.612 114.875 7.452C114.603 7.284 114.287 7.2 113.927 7.2C113.567 7.2 113.247 7.284 112.967 7.452C112.695 7.62 112.479 7.852 112.319 8.148C112.167 8.436 112.091 8.768 112.091 9.144C112.091 9.528 112.167 9.868 112.319 10.164C112.479 10.452 112.699 10.68 112.979 10.848C113.259 11.016 113.579 11.1 113.939 11.1ZM115.655 12V10.464L115.859 9.072L115.655 7.692V6.3H116.747V12H115.655ZM118.331 12V6.3H119.411V12H118.331ZM118.871 5.16C118.671 5.16 118.507 5.096 118.379 4.968C118.251 4.832 118.187 4.664 118.187 4.464C118.187 4.272 118.251 4.112 118.379 3.984C118.507 3.848 118.671 3.78 118.871 3.78C119.071 3.78 119.235 3.848 119.363 3.984C119.491 4.112 119.555 4.272 119.555 4.464C119.555 4.664 119.491 4.832 119.363 4.968C119.235 5.096 119.071 5.16 118.871 5.16ZM121.003 12V3.432H122.083V12H121.003ZM124.611 12.12C124.387 12.12 124.199 12.044 124.047 11.892C123.903 11.732 123.831 11.544 123.831 11.328C123.831 11.104 123.903 10.92 124.047 10.776C124.199 10.624 124.387 10.548 124.611 10.548C124.835 10.548 125.019 10.624 125.163 10.776C125.315 10.92 125.391 11.104 125.391 11.328C125.391 11.544 125.315 11.732 125.163 11.892C125.019 12.044 124.835 12.12 124.611 12.12ZM129.513 12.12C128.953 12.12 128.445 11.988 127.989 11.724C127.541 11.46 127.185 11.104 126.921 10.656C126.665 10.2 126.537 9.696 126.537 9.144C126.537 8.584 126.665 8.08 126.921 7.632C127.185 7.184 127.541 6.832 127.989 6.576C128.445 6.312 128.953 6.18 129.513 6.18C129.953 6.18 130.361 6.264 130.737 6.432C131.113 6.592 131.437 6.828 131.709 7.14L130.989 7.86C130.813 7.652 130.597 7.496 130.341 7.392C130.093 7.28 129.817 7.224 129.513 7.224C129.153 7.224 128.833 7.308 128.553 7.476C128.273 7.636 128.053 7.86 127.893 8.148C127.733 8.436 127.653 8.768 127.653 9.144C127.653 9.52 127.733 9.852 127.893 10.14C128.053 10.428 128.273 10.656 128.553 10.824C128.833 10.992 129.153 11.076 129.513 11.076C129.817 11.076 130.093 11.024 130.341 10.92C130.597 10.808 130.817 10.648 131.001 10.44L131.709 11.16C131.445 11.464 131.121 11.7 130.737 11.868C130.361 12.036 129.953 12.12 129.513 12.12ZM135.267 12.12C134.707 12.12 134.203 11.988 133.755 11.724C133.307 11.46 132.951 11.104 132.687 10.656C132.423 10.2 132.291 9.692 132.291 9.132C132.291 8.58 132.423 8.084 132.687 7.644C132.951 7.196 133.307 6.84 133.755 6.576C134.203 6.312 134.707 6.18 135.267 6.18C135.819 6.18 136.319 6.312 136.767 6.576C137.223 6.832 137.583 7.184 137.847 7.632C138.111 8.08 138.243 8.58 138.243 9.132C138.243 9.692 138.111 10.2 137.847 10.656C137.583 11.104 137.223 11.46 136.767 11.724C136.319 11.988 135.819 12.12 135.267 12.12ZM135.267 11.076C135.627 11.076 135.947 10.992 136.227 10.824C136.507 10.656 136.727 10.428 136.887 10.14C137.047 9.844 137.127 9.508 137.127 9.132C137.127 8.764 137.043 8.436 136.875 8.148C136.715 7.86 136.495 7.636 136.215 7.476C135.943 7.308 135.627 7.224 135.267 7.224C134.907 7.224 134.587 7.308 134.307 7.476C134.027 7.636 133.807 7.86 133.647 8.148C133.487 8.436 133.407 8.764 133.407 9.132C133.407 9.508 133.487 9.844 133.647 10.14C133.807 10.428 134.027 10.656 134.307 10.824C134.587 10.992 134.907 11.076 135.267 11.076ZM139.46 12V6.3H140.54V12H139.46ZM143.312 12V8.556C143.312 8.132 143.18 7.8 142.916 7.56C142.66 7.312 142.336 7.188 141.944 7.188C141.68 7.188 141.444 7.244 141.236 7.356C141.028 7.468 140.86 7.624 140.732 7.824C140.604 8.024 140.54 8.264 140.54 8.544L140.096 8.328C140.096 7.896 140.188 7.52 140.372 7.2C140.564 6.88 140.824 6.632 141.152 6.456C141.48 6.272 141.848 6.18 142.256 6.18C142.656 6.18 143.016 6.268 143.336 6.444C143.664 6.62 143.92 6.868 144.104 7.188C144.296 7.508 144.392 7.888 144.392 8.328V12H143.312ZM147.164 12V8.556C147.164 8.132 147.032 7.8 146.768 7.56C146.512 7.312 146.192 7.188 145.808 7.188C145.544 7.188 145.304 7.244 145.088 7.356C144.88 7.468 144.712 7.624 144.584 7.824C144.456 8.024 144.392 8.264 144.392 8.544L143.78 8.328C143.804 7.888 143.92 7.512 144.128 7.2C144.344 6.88 144.62 6.632 144.956 6.456C145.292 6.272 145.66 6.18 146.06 6.18C146.476 6.18 146.848 6.268 147.176 6.444C147.504 6.62 147.764 6.868 147.956 7.188C148.156 7.508 148.256 7.892 148.256 8.34V12H147.164Z" fill="#525252"/>
</svg>
