<svg width="107" height="15" viewBox="0 0 107 15" fill="none" xmlns="http://www.w3.org/2000/svg">
<g clip-path="url(#clip0_104_86)">
<path d="M9.16666 9.55002V10.8C9.16713 10.9161 9.14336 11.0309 9.09687 11.1372C9.05038 11.2436 8.9822 11.339 8.89669 11.4175C8.81118 11.4959 8.71023 11.5556 8.6003 11.5928C8.49038 11.63 8.3739 11.6438 8.25833 11.6334C6.97617 11.494 5.74458 11.0559 4.66249 10.3542C3.65575 9.71446 2.80222 8.86092 2.16249 7.85419C1.45832 6.76719 1.02009 5.5296 0.883326 4.24169C0.872914 4.12646 0.886607 4.01034 0.923534 3.9007C0.960462 3.79106 1.01981 3.69031 1.09781 3.60486C1.17581 3.51942 1.27074 3.45115 1.37657 3.4044C1.4824 3.35766 1.5968 3.33346 1.71249 3.33335H2.96249C3.1647 3.33136 3.36074 3.40297 3.51406 3.53483C3.66738 3.66668 3.76752 3.84979 3.79583 4.05002C3.84859 4.45005 3.94643 4.84282 4.08749 5.22085C4.14355 5.36999 4.15569 5.53207 4.12245 5.68789C4.08922 5.84371 4.01202 5.98673 3.89999 6.10002L3.37083 6.62919C3.96397 7.67233 4.82768 8.53604 5.87083 9.12919L6.39999 8.60002C6.51328 8.48799 6.65631 8.41079 6.81213 8.37756C6.96794 8.34433 7.13002 8.35646 7.27916 8.41252C7.65719 8.55358 8.04996 8.65143 8.44999 8.70419C8.65239 8.73274 8.83724 8.83469 8.96938 8.99064C9.10152 9.1466 9.17173 9.34568 9.16666 9.55002Z" stroke="#525252" stroke-linecap="round" stroke-linejoin="round"/>
</g>
<path d="M16.708 8.472V7.5H21.796V8.472H16.708ZM18.76 5.316H19.756V10.656H18.76V5.316ZM24.2679 12L26.7759 8.58L27.1839 8.364C27.0879 8.524 26.9719 8.664 26.8359 8.784C26.6999 8.904 26.5319 8.996 26.3319 9.06C26.1399 9.124 25.9039 9.156 25.6239 9.156C25.1439 9.156 24.6999 9.04 24.2919 8.808C23.8919 8.576 23.5719 8.256 23.3319 7.848C23.0919 7.432 22.9719 6.964 22.9719 6.444C22.9719 5.908 23.1039 5.424 23.3679 4.992C23.6319 4.552 23.9839 4.204 24.4239 3.948C24.8639 3.684 25.3519 3.552 25.8879 3.552C26.4319 3.552 26.9239 3.68 27.3639 3.936C27.8039 4.192 28.1519 4.536 28.4079 4.968C28.6639 5.392 28.7919 5.872 28.7919 6.408C28.7919 7.144 28.5359 7.876 28.0239 8.604L25.5759 12H24.2679ZM25.8879 8.268C26.2239 8.268 26.5239 8.188 26.7879 8.028C27.0599 7.86 27.2719 7.64 27.4239 7.368C27.5839 7.088 27.6639 6.78 27.6639 6.444C27.6639 6.092 27.5839 5.78 27.4239 5.508C27.2719 5.228 27.0599 5.008 26.7879 4.848C26.5239 4.688 26.2239 4.608 25.8879 4.608C25.5519 4.608 25.2479 4.688 24.9759 4.848C24.7119 5.008 24.4999 5.228 24.3399 5.508C24.1799 5.78 24.0999 6.092 24.0999 6.444C24.0999 6.788 24.1799 7.096 24.3399 7.368C24.4999 7.64 24.7159 7.86 24.9879 8.028C25.2599 8.188 25.5599 8.268 25.8879 8.268ZM31.2479 12V3.672H32.3639V12H31.2479ZM29.5439 4.68V3.672H32.2439V4.68H29.5439ZM37.5921 12L40.1001 8.58L40.5081 8.364C40.4121 8.524 40.2961 8.664 40.1601 8.784C40.0241 8.904 39.8561 8.996 39.6561 9.06C39.4641 9.124 39.2281 9.156 38.9481 9.156C38.4681 9.156 38.0241 9.04 37.6161 8.808C37.2161 8.576 36.8961 8.256 36.6561 7.848C36.4161 7.432 36.2961 6.964 36.2961 6.444C36.2961 5.908 36.4281 5.424 36.6921 4.992C36.9561 4.552 37.3081 4.204 37.7481 3.948C38.1881 3.684 38.6761 3.552 39.2121 3.552C39.7561 3.552 40.2481 3.68 40.6881 3.936C41.1281 4.192 41.4761 4.536 41.7321 4.968C41.9881 5.392 42.1161 5.872 42.1161 6.408C42.1161 7.144 41.8601 7.876 41.3481 8.604L38.9001 12H37.5921ZM39.2121 8.268C39.5481 8.268 39.8481 8.188 40.1121 8.028C40.3841 7.86 40.5961 7.64 40.7481 7.368C40.9081 7.088 40.9881 6.78 40.9881 6.444C40.9881 6.092 40.9081 5.78 40.7481 5.508C40.5961 5.228 40.3841 5.008 40.1121 4.848C39.8481 4.688 39.5481 4.608 39.2121 4.608C38.8761 4.608 38.5721 4.688 38.3001 4.848C38.0361 5.008 37.8241 5.228 37.6641 5.508C37.5041 5.78 37.4241 6.092 37.4241 6.444C37.4241 6.788 37.5041 7.096 37.6641 7.368C37.8241 7.64 38.0401 7.86 38.3121 8.028C38.5841 8.188 38.8841 8.268 39.2121 8.268ZM45.634 12.12C45.082 12.12 44.586 11.992 44.146 11.736C43.714 11.48 43.37 11.136 43.114 10.704C42.858 10.272 42.73 9.792 42.73 9.264C42.73 8.528 42.986 7.796 43.498 7.068L45.946 3.672H47.254L44.746 7.092L44.338 7.308C44.434 7.14 44.55 7 44.686 6.888C44.822 6.768 44.99 6.676 45.19 6.612C45.39 6.548 45.626 6.516 45.898 6.516C46.386 6.516 46.826 6.632 47.218 6.864C47.618 7.096 47.938 7.416 48.178 7.824C48.426 8.224 48.55 8.692 48.55 9.228C48.55 9.756 48.418 10.24 48.154 10.68C47.898 11.12 47.546 11.472 47.098 11.736C46.658 11.992 46.17 12.12 45.634 12.12ZM45.634 11.064C45.97 11.064 46.27 10.984 46.534 10.824C46.806 10.656 47.018 10.436 47.17 10.164C47.33 9.884 47.41 9.572 47.41 9.228C47.41 8.884 47.33 8.576 47.17 8.304C47.018 8.024 46.806 7.804 46.534 7.644C46.27 7.484 45.97 7.404 45.634 7.404C45.298 7.404 44.994 7.484 44.722 7.644C44.458 7.804 44.246 8.024 44.086 8.304C43.934 8.576 43.858 8.884 43.858 9.228C43.858 9.572 43.934 9.884 44.086 10.164C44.246 10.444 44.458 10.664 44.722 10.824C44.994 10.984 45.298 11.064 45.634 11.064ZM52.4074 12.12C51.8554 12.12 51.3594 11.992 50.9194 11.736C50.4874 11.48 50.1434 11.136 49.8874 10.704C49.6314 10.272 49.5034 9.792 49.5034 9.264C49.5034 8.528 49.7594 7.796 50.2714 7.068L52.7194 3.672H54.0274L51.5194 7.092L51.1114 7.308C51.2074 7.14 51.3234 7 51.4594 6.888C51.5954 6.768 51.7634 6.676 51.9634 6.612C52.1634 6.548 52.3994 6.516 52.6714 6.516C53.1594 6.516 53.5994 6.632 53.9914 6.864C54.3914 7.096 54.7114 7.416 54.9514 7.824C55.1994 8.224 55.3234 8.692 55.3234 9.228C55.3234 9.756 55.1914 10.24 54.9274 10.68C54.6714 11.12 54.3194 11.472 53.8714 11.736C53.4314 11.992 52.9434 12.12 52.4074 12.12ZM52.4074 11.064C52.7434 11.064 53.0434 10.984 53.3074 10.824C53.5794 10.656 53.7914 10.436 53.9434 10.164C54.1034 9.884 54.1834 9.572 54.1834 9.228C54.1834 8.884 54.1034 8.576 53.9434 8.304C53.7914 8.024 53.5794 7.804 53.3074 7.644C53.0434 7.484 52.7434 7.404 52.4074 7.404C52.0714 7.404 51.7674 7.484 51.4954 7.644C51.2314 7.804 51.0194 8.024 50.8594 8.304C50.7074 8.576 50.6314 8.884 50.6314 9.228C50.6314 9.572 50.7074 9.884 50.8594 10.164C51.0194 10.444 51.2314 10.664 51.4954 10.824C51.7674 10.984 52.0714 11.064 52.4074 11.064ZM61.269 12.12C60.701 12.12 60.193 12.02 59.745 11.82C59.305 11.612 58.933 11.312 58.629 10.92L59.397 10.152C59.581 10.432 59.833 10.656 60.153 10.824C60.481 10.984 60.845 11.064 61.245 11.064C61.621 11.064 61.949 10.992 62.229 10.848C62.517 10.704 62.741 10.504 62.901 10.248C63.069 9.984 63.153 9.672 63.153 9.312C63.153 8.944 63.073 8.632 62.913 8.376C62.753 8.12 62.537 7.928 62.265 7.8C62.001 7.664 61.709 7.596 61.389 7.596C61.061 7.596 60.761 7.636 60.489 7.716C60.225 7.796 59.973 7.932 59.733 8.124L59.745 7.404C59.881 7.236 60.037 7.1 60.213 6.996C60.389 6.892 60.589 6.812 60.813 6.756C61.037 6.7 61.297 6.672 61.593 6.672C62.169 6.672 62.657 6.792 63.057 7.032C63.457 7.272 63.761 7.596 63.969 8.004C64.185 8.412 64.293 8.868 64.293 9.372C64.293 9.9 64.161 10.372 63.897 10.788C63.641 11.204 63.285 11.532 62.829 11.772C62.373 12.004 61.853 12.12 61.269 12.12ZM59.733 8.124L59.121 7.512L59.493 3.672H60.525L60.105 7.62L59.733 8.124ZM59.721 4.68L59.493 3.672H63.873V4.68H59.721ZM68.1692 12.12C67.6172 12.12 67.1212 11.992 66.6812 11.736C66.2492 11.48 65.9052 11.136 65.6492 10.704C65.3932 10.272 65.2652 9.792 65.2652 9.264C65.2652 8.528 65.5212 7.796 66.0332 7.068L68.4812 3.672H69.7892L67.2812 7.092L66.8732 7.308C66.9692 7.14 67.0852 7 67.2212 6.888C67.3572 6.768 67.5252 6.676 67.7252 6.612C67.9252 6.548 68.1612 6.516 68.4332 6.516C68.9212 6.516 69.3612 6.632 69.7532 6.864C70.1532 7.096 70.4732 7.416 70.7132 7.824C70.9612 8.224 71.0852 8.692 71.0852 9.228C71.0852 9.756 70.9532 10.24 70.6892 10.68C70.4332 11.12 70.0812 11.472 69.6332 11.736C69.1932 11.992 68.7052 12.12 68.1692 12.12ZM68.1692 11.064C68.5052 11.064 68.8052 10.984 69.0692 10.824C69.3412 10.656 69.5532 10.436 69.7052 10.164C69.8652 9.884 69.9452 9.572 69.9452 9.228C69.9452 8.884 69.8652 8.576 69.7052 8.304C69.5532 8.024 69.3412 7.804 69.0692 7.644C68.8052 7.484 68.5052 7.404 68.1692 7.404C67.8332 7.404 67.5292 7.484 67.2572 7.644C66.9932 7.804 66.7812 8.024 66.6212 8.304C66.4692 8.576 66.3932 8.884 66.3932 9.228C66.3932 9.572 66.4692 9.884 66.6212 10.164C66.7812 10.444 66.9932 10.664 67.2572 10.824C67.5292 10.984 67.8332 11.064 68.1692 11.064ZM74.5346 12.12C73.9666 12.12 73.4586 12.02 73.0106 11.82C72.5706 11.612 72.1986 11.312 71.8946 10.92L72.6626 10.152C72.8466 10.432 73.0986 10.656 73.4186 10.824C73.7466 10.984 74.1106 11.064 74.5106 11.064C74.8866 11.064 75.2146 10.992 75.4946 10.848C75.7826 10.704 76.0066 10.504 76.1666 10.248C76.3346 9.984 76.4186 9.672 76.4186 9.312C76.4186 8.944 76.3386 8.632 76.1786 8.376C76.0186 8.12 75.8026 7.928 75.5306 7.8C75.2666 7.664 74.9746 7.596 74.6546 7.596C74.3266 7.596 74.0266 7.636 73.7546 7.716C73.4906 7.796 73.2386 7.932 72.9986 8.124L73.0106 7.404C73.1466 7.236 73.3026 7.1 73.4786 6.996C73.6546 6.892 73.8546 6.812 74.0786 6.756C74.3026 6.7 74.5626 6.672 74.8586 6.672C75.4346 6.672 75.9226 6.792 76.3226 7.032C76.7226 7.272 77.0266 7.596 77.2346 8.004C77.4506 8.412 77.5586 8.868 77.5586 9.372C77.5586 9.9 77.4266 10.372 77.1626 10.788C76.9066 11.204 76.5506 11.532 76.0946 11.772C75.6386 12.004 75.1186 12.12 74.5346 12.12ZM72.9986 8.124L72.3866 7.512L72.7586 3.672H73.7906L73.3706 7.62L72.9986 8.124ZM72.9866 4.68L72.7586 3.672H77.1386V4.68H72.9866ZM81.4348 12.12C80.8828 12.12 80.3868 11.992 79.9468 11.736C79.5148 11.48 79.1708 11.136 78.9148 10.704C78.6588 10.272 78.5308 9.792 78.5308 9.264C78.5308 8.528 78.7868 7.796 79.2988 7.068L81.7468 3.672H83.0548L80.5468 7.092L80.1388 7.308C80.2348 7.14 80.3508 7 80.4868 6.888C80.6228 6.768 80.7908 6.676 80.9908 6.612C81.1908 6.548 81.4268 6.516 81.6988 6.516C82.1868 6.516 82.6268 6.632 83.0188 6.864C83.4188 7.096 83.7388 7.416 83.9788 7.824C84.2268 8.224 84.3508 8.692 84.3508 9.228C84.3508 9.756 84.2188 10.24 83.9548 10.68C83.6988 11.12 83.3468 11.472 82.8988 11.736C82.4588 11.992 81.9708 12.12 81.4348 12.12ZM81.4348 11.064C81.7708 11.064 82.0708 10.984 82.3348 10.824C82.6068 10.656 82.8188 10.436 82.9708 10.164C83.1308 9.884 83.2108 9.572 83.2108 9.228C83.2108 8.884 83.1308 8.576 82.9708 8.304C82.8188 8.024 82.6068 7.804 82.3348 7.644C82.0708 7.484 81.7708 7.404 81.4348 7.404C81.0988 7.404 80.7948 7.484 80.5228 7.644C80.2588 7.804 80.0468 8.024 79.8868 8.304C79.7348 8.576 79.6588 8.884 79.6588 9.228C79.6588 9.572 79.7348 9.884 79.8868 10.164C80.0468 10.444 80.2588 10.664 80.5228 10.824C80.7948 10.984 81.0988 11.064 81.4348 11.064ZM89.0003 12L92.1203 4.332L93.2363 4.368L90.1883 12H89.0003ZM87.6923 4.68V3.672H93.2363V4.368L92.7443 4.68H87.6923ZM96.6555 12.12C96.1035 12.12 95.6155 12.016 95.1915 11.808C94.7755 11.6 94.4515 11.312 94.2195 10.944C93.9875 10.576 93.8715 10.16 93.8715 9.696C93.8715 9.32 93.9435 8.976 94.0875 8.664C94.2315 8.352 94.4435 8.088 94.7235 7.872C95.0035 7.648 95.3315 7.488 95.7075 7.392L95.7435 7.716C95.4235 7.628 95.1515 7.488 94.9275 7.296C94.7035 7.096 94.5315 6.864 94.4115 6.6C94.2995 6.328 94.2435 6.04 94.2435 5.736C94.2435 5.304 94.3475 4.924 94.5555 4.596C94.7635 4.268 95.0475 4.012 95.4075 3.828C95.7755 3.636 96.1915 3.54 96.6555 3.54C97.1275 3.54 97.5435 3.636 97.9035 3.828C98.2635 4.012 98.5475 4.268 98.7555 4.596C98.9635 4.924 99.0675 5.304 99.0675 5.736C99.0675 6.04 99.0075 6.328 98.8875 6.6C98.7755 6.864 98.6075 7.096 98.3835 7.296C98.1675 7.488 97.8995 7.628 97.5795 7.716L97.6035 7.392C97.9875 7.488 98.3155 7.648 98.5875 7.872C98.8675 8.088 99.0795 8.352 99.2235 8.664C99.3755 8.976 99.4515 9.32 99.4515 9.696C99.4515 10.16 99.3355 10.576 99.1035 10.944C98.8715 11.312 98.5435 11.6 98.1195 11.808C97.7035 12.016 97.2155 12.12 96.6555 12.12ZM96.6555 11.1C96.9915 11.1 97.2835 11.036 97.5315 10.908C97.7875 10.772 97.9875 10.588 98.1315 10.356C98.2835 10.124 98.3595 9.856 98.3595 9.552C98.3595 9.256 98.2835 8.992 98.1315 8.76C97.9875 8.528 97.7875 8.348 97.5315 8.22C97.2835 8.084 96.9915 8.016 96.6555 8.016C96.3275 8.016 96.0355 8.084 95.7795 8.22C95.5235 8.348 95.3195 8.528 95.1675 8.76C95.0235 8.992 94.9515 9.256 94.9515 9.552C94.9515 9.856 95.0235 10.124 95.1675 10.356C95.3195 10.588 95.5235 10.772 95.7795 10.908C96.0355 11.036 96.3275 11.1 96.6555 11.1ZM96.6555 7.14C97.0555 7.14 97.3835 7.016 97.6395 6.768C97.8955 6.52 98.0235 6.2 98.0235 5.808C98.0235 5.424 97.8955 5.112 97.6395 4.872C97.3835 4.624 97.0555 4.5 96.6555 4.5C96.2635 4.5 95.9395 4.624 95.6835 4.872C95.4275 5.112 95.2995 5.424 95.2995 5.808C95.2995 6.2 95.4275 6.52 95.6835 6.768C95.9395 7.016 96.2635 7.14 96.6555 7.14ZM103.253 12.12C102.701 12.12 102.213 12.016 101.789 11.808C101.373 11.6 101.049 11.312 100.817 10.944C100.585 10.576 100.469 10.16 100.469 9.696C100.469 9.32 100.541 8.976 100.685 8.664C100.829 8.352 101.041 8.088 101.321 7.872C101.601 7.648 101.929 7.488 102.305 7.392L102.341 7.716C102.021 7.628 101.749 7.488 101.525 7.296C101.301 7.096 101.129 6.864 101.009 6.6C100.897 6.328 100.841 6.04 100.841 5.736C100.841 5.304 100.945 4.924 101.153 4.596C101.361 4.268 101.645 4.012 102.005 3.828C102.373 3.636 102.789 3.54 103.253 3.54C103.725 3.54 104.141 3.636 104.501 3.828C104.861 4.012 105.145 4.268 105.353 4.596C105.561 4.924 105.665 5.304 105.665 5.736C105.665 6.04 105.605 6.328 105.485 6.6C105.373 6.864 105.205 7.096 104.981 7.296C104.765 7.488 104.497 7.628 104.177 7.716L104.201 7.392C104.585 7.488 104.913 7.648 105.185 7.872C105.465 8.088 105.677 8.352 105.821 8.664C105.973 8.976 106.049 9.32 106.049 9.696C106.049 10.16 105.933 10.576 105.701 10.944C105.469 11.312 105.141 11.6 104.717 11.808C104.301 12.016 103.813 12.12 103.253 12.12ZM103.253 11.1C103.589 11.1 103.881 11.036 104.129 10.908C104.385 10.772 104.585 10.588 104.729 10.356C104.881 10.124 104.957 9.856 104.957 9.552C104.957 9.256 104.881 8.992 104.729 8.76C104.585 8.528 104.385 8.348 104.129 8.22C103.881 8.084 103.589 8.016 103.253 8.016C102.925 8.016 102.633 8.084 102.377 8.22C102.121 8.348 101.917 8.528 101.765 8.76C101.621 8.992 101.549 9.256 101.549 9.552C101.549 9.856 101.621 10.124 101.765 10.356C101.917 10.588 102.121 10.772 102.377 10.908C102.633 11.036 102.925 11.1 103.253 11.1ZM103.253 7.14C103.653 7.14 103.981 7.016 104.237 6.768C104.493 6.52 104.621 6.2 104.621 5.808C104.621 5.424 104.493 5.112 104.237 4.872C103.981 4.624 103.653 4.5 103.253 4.5C102.861 4.5 102.537 4.624 102.281 4.872C102.025 5.112 101.897 5.424 101.897 5.808C101.897 6.2 102.025 6.52 102.281 6.768C102.537 7.016 102.861 7.14 103.253 7.14Z" fill="#525252"/>
<defs>
<clipPath id="clip0_104_86">
<rect width="10" height="10" fill="white" transform="translate(0 2.5)"/>
</clipPath>
</defs>
</svg>
