<svg width="45" height="10" viewBox="0 0 45 10" fill="none" xmlns="http://www.w3.org/2000/svg">
<path d="M0.984 9V0.672H2.112V9H0.984ZM1.752 5.34V4.308H6.096V5.34H1.752ZM1.752 1.704V0.672H6.3V1.704H1.752ZM9.9585 9.12C9.3985 9.12 8.8945 8.988 8.4465 8.724C7.9985 8.46 7.6425 8.104 7.3785 7.656C7.1145 7.2 6.9825 6.692 6.9825 6.132C6.9825 5.58 7.1145 5.084 7.3785 4.644C7.6425 4.196 7.9985 3.84 8.4465 3.576C8.8945 3.312 9.3985 3.18 9.9585 3.18C10.5105 3.18 11.0105 3.312 11.4585 3.576C11.9145 3.832 12.2745 4.184 12.5385 4.632C12.8025 5.08 12.9345 5.58 12.9345 6.132C12.9345 6.692 12.8025 7.2 12.5385 7.656C12.2745 8.104 11.9145 8.46 11.4585 8.724C11.0105 8.988 10.5105 9.12 9.9585 9.12ZM9.9585 8.076C10.3185 8.076 10.6385 7.992 10.9185 7.824C11.1985 7.656 11.4185 7.428 11.5785 7.14C11.7385 6.844 11.8185 6.508 11.8185 6.132C11.8185 5.764 11.7345 5.436 11.5665 5.148C11.4065 4.86 11.1865 4.636 10.9065 4.476C10.6345 4.308 10.3185 4.224 9.9585 4.224C9.5985 4.224 9.2785 4.308 8.9985 4.476C8.7185 4.636 8.4985 4.86 8.3385 5.148C8.1785 5.436 8.0985 5.764 8.0985 6.132C8.0985 6.508 8.1785 6.844 8.3385 7.14C8.4985 7.428 8.7185 7.656 8.9985 7.824C9.2785 7.992 9.5985 8.076 9.9585 8.076ZM16.4434 9.12C15.9794 9.12 15.5594 9.016 15.1834 8.808C14.8154 8.592 14.5274 8.296 14.3194 7.92C14.1114 7.544 14.0074 7.108 14.0074 6.612V3.3H15.0874V6.564C15.0874 6.876 15.1394 7.148 15.2434 7.38C15.3554 7.604 15.5154 7.776 15.7234 7.896C15.9314 8.016 16.1754 8.076 16.4554 8.076C16.8794 8.076 17.2114 7.944 17.4514 7.68C17.6914 7.408 17.8114 7.036 17.8114 6.564V3.3H18.8914V6.612C18.8914 7.108 18.7874 7.544 18.5794 7.92C18.3714 8.296 18.0834 8.592 17.7154 8.808C17.3554 9.016 16.9314 9.12 16.4434 9.12ZM24.3709 9V5.676C24.3709 5.244 24.2349 4.888 23.9629 4.608C23.6909 4.328 23.3389 4.188 22.9069 4.188C22.6189 4.188 22.3629 4.252 22.1389 4.38C21.9149 4.508 21.7389 4.684 21.6109 4.908C21.4829 5.132 21.4189 5.388 21.4189 5.676L20.9749 5.424C20.9749 4.992 21.0709 4.608 21.2629 4.272C21.4549 3.936 21.7229 3.672 22.0669 3.48C22.4109 3.28 22.7989 3.18 23.2309 3.18C23.6629 3.18 24.0429 3.288 24.3709 3.504C24.7069 3.72 24.9709 4.004 25.1629 4.356C25.3549 4.7 25.4509 5.068 25.4509 5.46V9H24.3709ZM20.3389 9V3.3H21.4189V9H20.3389ZM29.3251 9.12C28.7971 9.12 28.3251 8.992 27.9091 8.736C27.4931 8.472 27.1611 8.116 26.9131 7.668C26.6731 7.22 26.5531 6.716 26.5531 6.156C26.5531 5.596 26.6731 5.092 26.9131 4.644C27.1611 4.196 27.4931 3.84 27.9091 3.576C28.3251 3.312 28.7971 3.18 29.3251 3.18C29.7491 3.18 30.1331 3.272 30.4771 3.456C30.8211 3.632 31.0971 3.88 31.3051 4.2C31.5211 4.512 31.6411 4.876 31.6651 5.292V7.008C31.6411 7.416 31.5251 7.78 31.3171 8.1C31.1091 8.42 30.8331 8.672 30.4891 8.856C30.1451 9.032 29.7571 9.12 29.3251 9.12ZM29.5051 8.1C29.8651 8.1 30.1771 8.016 30.4411 7.848C30.7131 7.68 30.9251 7.452 31.0771 7.164C31.2291 6.868 31.3051 6.532 31.3051 6.156C31.3051 5.764 31.2251 5.424 31.0651 5.136C30.9131 4.848 30.7011 4.62 30.4291 4.452C30.1651 4.284 29.8531 4.2 29.4931 4.2C29.1331 4.2 28.8171 4.284 28.5451 4.452C28.2731 4.62 28.0571 4.852 27.8971 5.148C27.7451 5.436 27.6691 5.768 27.6691 6.144C27.6691 6.528 27.7451 6.868 27.8971 7.164C28.0571 7.452 28.2731 7.68 28.5451 7.848C28.8251 8.016 29.1451 8.1 29.5051 8.1ZM32.3251 9H31.2331V7.464L31.4371 6.072L31.2331 4.692V0.431999H32.3251V9ZM36.5375 9.12C35.9695 9.12 35.4575 8.992 35.0015 8.736C34.5455 8.472 34.1855 8.116 33.9215 7.668C33.6575 7.22 33.5255 6.712 33.5255 6.144C33.5255 5.584 33.6535 5.08 33.9095 4.632C34.1735 4.184 34.5255 3.832 34.9655 3.576C35.4135 3.312 35.9135 3.18 36.4655 3.18C36.9935 3.18 37.4575 3.3 37.8575 3.54C38.2655 3.78 38.5815 4.112 38.8055 4.536C39.0375 4.96 39.1535 5.44 39.1535 5.976C39.1535 6.056 39.1495 6.144 39.1415 6.24C39.1335 6.328 39.1175 6.432 39.0935 6.552H34.2815V5.652H38.5175L38.1215 6C38.1215 5.616 38.0535 5.292 37.9175 5.028C37.7815 4.756 37.5895 4.548 37.3415 4.404C37.0935 4.252 36.7935 4.176 36.4415 4.176C36.0735 4.176 35.7495 4.256 35.4695 4.416C35.1895 4.576 34.9735 4.8 34.8215 5.088C34.6695 5.376 34.5935 5.716 34.5935 6.108C34.5935 6.508 34.6735 6.86 34.8335 7.164C34.9935 7.46 35.2215 7.692 35.5175 7.86C35.8135 8.02 36.1535 8.1 36.5375 8.1C36.8575 8.1 37.1495 8.044 37.4135 7.932C37.6855 7.82 37.9175 7.652 38.1095 7.428L38.8055 8.136C38.5335 8.456 38.1975 8.7 37.7975 8.868C37.4055 9.036 36.9855 9.12 36.5375 9.12ZM40.3311 9V3.3H41.4111V9H40.3311ZM41.4111 5.748L41.0031 5.568C41.0031 4.84 41.1711 4.26 41.5071 3.828C41.8431 3.396 42.3271 3.18 42.9591 3.18C43.2471 3.18 43.5071 3.232 43.7391 3.336C43.9711 3.432 44.1871 3.596 44.3871 3.828L43.6791 4.56C43.5591 4.432 43.4271 4.34 43.2831 4.284C43.1391 4.228 42.9711 4.2 42.7791 4.2C42.3791 4.2 42.0511 4.328 41.7951 4.584C41.5391 4.84 41.4111 5.228 41.4111 5.748Z" fill="#A3A3A3"/>
</svg>
