<svg width="86" height="14" viewBox="0 0 86 14" fill="none" xmlns="http://www.w3.org/2000/svg">
<path d="M3.01 11.154C2.38467 11.154 1.83867 11.042 1.372 10.818C0.914667 10.5847 0.522667 10.2627 0.196 9.852L1.666 8.438C1.834 8.67133 2.03 8.84867 2.254 8.97C2.48733 9.09133 2.74867 9.152 3.038 9.152C3.318 9.152 3.56067 9.096 3.766 8.984C3.97133 8.86267 4.13467 8.69467 4.256 8.48C4.37733 8.256 4.438 7.98067 4.438 7.654V1.116H6.65V7.528C6.65 8.26533 6.50067 8.90467 6.202 9.446C5.90333 9.98733 5.48333 10.4073 4.942 10.706C4.40067 11.0047 3.75667 11.154 3.01 11.154ZM11.0492 11.14C10.4238 11.14 9.86384 10.986 9.36917 10.678C8.88384 10.37 8.49651 9.95 8.20717 9.418C7.92717 8.886 7.78717 8.27933 7.78717 7.598C7.78717 6.91667 7.92717 6.31 8.20717 5.778C8.49651 5.246 8.88384 4.826 9.36917 4.518C9.86384 4.21 10.4238 4.056 11.0492 4.056C11.5065 4.056 11.9172 4.14467 12.2812 4.322C12.6545 4.49933 12.9578 4.74667 13.1912 5.064C13.4245 5.372 13.5552 5.72667 13.5832 6.128V9.068C13.5552 9.46933 13.4245 9.82867 13.1912 10.146C12.9672 10.454 12.6685 10.6967 12.2952 10.874C11.9218 11.0513 11.5065 11.14 11.0492 11.14ZM11.4832 9.208C11.9405 9.208 12.3092 9.05867 12.5892 8.76C12.8692 8.452 13.0092 8.06467 13.0092 7.598C13.0092 7.28067 12.9438 7.00067 12.8132 6.758C12.6918 6.51533 12.5145 6.32867 12.2812 6.198C12.0572 6.058 11.7958 5.988 11.4972 5.988C11.1985 5.988 10.9325 6.058 10.6992 6.198C10.4752 6.32867 10.2932 6.51533 10.1532 6.758C10.0225 7.00067 9.95717 7.28067 9.95717 7.598C9.95717 7.906 10.0225 8.18133 10.1532 8.424C10.2838 8.66667 10.4658 8.858 10.6992 8.998C10.9325 9.138 11.1938 9.208 11.4832 9.208ZM12.9252 11V9.166L13.2472 7.514L12.9252 5.862V4.196H15.0252V11H12.9252ZM18.6333 11.028L15.8333 4.196H18.1433L19.9213 9.614H19.0673L20.8873 4.196H23.1973L20.2853 11.028H18.6333ZM16.8833 13.87L18.9273 9.46L20.2853 11.028L19.0813 13.87H16.8833ZM28.3418 11V7.122C28.3418 6.76733 28.2298 6.48267 28.0058 6.268C27.7911 6.044 27.5158 5.932 27.1798 5.932C26.9465 5.932 26.7411 5.98333 26.5638 6.086C26.3865 6.17933 26.2465 6.31933 26.1438 6.506C26.0411 6.68333 25.9898 6.88867 25.9898 7.122L25.1638 6.716C25.1638 6.184 25.2805 5.71733 25.5138 5.316C25.7471 4.91467 26.0691 4.60667 26.4798 4.392C26.8998 4.168 27.3711 4.056 27.8938 4.056C28.3978 4.056 28.8411 4.17733 29.2238 4.42C29.6158 4.65333 29.9238 4.966 30.1478 5.358C30.3718 5.75 30.4838 6.17933 30.4838 6.646V11H28.3418ZM23.8478 11V4.196H25.9898V11H23.8478ZM34.7015 11.14C34.0762 11.14 33.5162 10.986 33.0215 10.678C32.5362 10.37 32.1488 9.95 31.8595 9.418C31.5795 8.886 31.4395 8.27933 31.4395 7.598C31.4395 6.91667 31.5795 6.31 31.8595 5.778C32.1488 5.246 32.5362 4.826 33.0215 4.518C33.5162 4.21 34.0762 4.056 34.7015 4.056C35.1588 4.056 35.5695 4.14467 35.9335 4.322C36.3068 4.49933 36.6102 4.74667 36.8435 5.064C37.0768 5.372 37.2075 5.72667 37.2355 6.128V9.068C37.2075 9.46933 37.0768 9.82867 36.8435 10.146C36.6195 10.454 36.3208 10.6967 35.9475 10.874C35.5742 11.0513 35.1588 11.14 34.7015 11.14ZM35.1355 9.208C35.5928 9.208 35.9615 9.05867 36.2415 8.76C36.5215 8.452 36.6615 8.06467 36.6615 7.598C36.6615 7.28067 36.5962 7.00067 36.4655 6.758C36.3442 6.51533 36.1668 6.32867 35.9335 6.198C35.7095 6.058 35.4482 5.988 35.1495 5.988C34.8508 5.988 34.5848 6.058 34.3515 6.198C34.1275 6.32867 33.9455 6.51533 33.8055 6.758C33.6748 7.00067 33.6095 7.28067 33.6095 7.598C33.6095 7.906 33.6748 8.18133 33.8055 8.424C33.9362 8.66667 34.1182 8.858 34.3515 8.998C34.5848 9.138 34.8462 9.208 35.1355 9.208ZM36.5775 11V9.166L36.8995 7.514L36.5775 5.862V4.196H38.6775V11H36.5775ZM40.1857 11V4.196H42.3277V11H40.1857ZM44.5397 11V7.024C44.5397 6.67867 44.4324 6.41267 44.2177 6.226C44.0124 6.03 43.7557 5.932 43.4477 5.932C43.233 5.932 43.0417 5.97867 42.8737 6.072C42.7057 6.156 42.5704 6.27733 42.4677 6.436C42.3744 6.59467 42.3277 6.79067 42.3277 7.024L41.5017 6.66C41.5017 6.11867 41.6184 5.65667 41.8517 5.274C42.085 4.882 42.4024 4.58333 42.8037 4.378C43.205 4.16333 43.6577 4.056 44.1617 4.056C44.6377 4.056 45.0624 4.16333 45.4357 4.378C45.8184 4.59267 46.1217 4.89133 46.3457 5.274C46.5697 5.65667 46.6817 6.114 46.6817 6.646V11H44.5397ZM48.8937 11V7.024C48.8937 6.67867 48.7864 6.41267 48.5717 6.226C48.3664 6.03 48.1097 5.932 47.8017 5.932C47.587 5.932 47.3957 5.97867 47.2277 6.072C47.0597 6.156 46.9244 6.27733 46.8217 6.436C46.7284 6.59467 46.6817 6.79067 46.6817 7.024L45.4497 6.856C45.4684 6.27733 45.6037 5.78267 45.8557 5.372C46.117 4.952 46.4577 4.63 46.8777 4.406C47.307 4.17267 47.7877 4.056 48.3197 4.056C48.8424 4.056 49.3044 4.168 49.7057 4.392C50.1164 4.60667 50.4384 4.91933 50.6717 5.33C50.9144 5.73133 51.0357 6.21667 51.0357 6.786V11H48.8937ZM55.2704 11V1.116H56.8384L60.7304 7.178H59.9324L63.8104 1.116H65.3924V11H63.1944V4.826L63.5864 4.924L61.0524 8.872H59.5964L57.0764 4.924L57.4544 4.826V11H55.2704ZM70.3679 11.154C69.6679 11.154 69.0333 11 68.4639 10.692C67.9039 10.3747 67.4606 9.94533 67.1339 9.404C66.8073 8.86267 66.6439 8.256 66.6439 7.584C66.6439 6.912 66.8073 6.31 67.1339 5.778C67.4606 5.246 67.9039 4.826 68.4639 4.518C69.0239 4.20067 69.6586 4.042 70.3679 4.042C71.0773 4.042 71.7119 4.196 72.2719 4.504C72.8319 4.812 73.2753 5.23667 73.6019 5.778C73.9286 6.31 74.0919 6.912 74.0919 7.584C74.0919 8.256 73.9286 8.86267 73.6019 9.404C73.2753 9.94533 72.8319 10.3747 72.2719 10.692C71.7119 11 71.0773 11.154 70.3679 11.154ZM70.3679 9.208C70.6759 9.208 70.9466 9.14267 71.1799 9.012C71.4133 8.872 71.5906 8.68067 71.7119 8.438C71.8426 8.186 71.9079 7.90133 71.9079 7.584C71.9079 7.26667 71.8426 6.99133 71.7119 6.758C71.5813 6.51533 71.3993 6.32867 71.1659 6.198C70.9419 6.058 70.6759 5.988 70.3679 5.988C70.0693 5.988 69.8033 6.058 69.5699 6.198C69.3366 6.32867 69.1546 6.51533 69.0239 6.758C68.8933 7.00067 68.8279 7.28067 68.8279 7.598C68.8279 7.906 68.8933 8.186 69.0239 8.438C69.1546 8.68067 69.3366 8.872 69.5699 9.012C69.8033 9.14267 70.0693 9.208 70.3679 9.208ZM78.0563 11.14C77.4123 11.14 76.8383 10.986 76.3343 10.678C75.8397 10.37 75.4477 9.95 75.1583 9.418C74.8783 8.886 74.7383 8.27933 74.7383 7.598C74.7383 6.91667 74.8783 6.31 75.1583 5.778C75.4477 5.246 75.8397 4.826 76.3343 4.518C76.8383 4.21 77.4123 4.056 78.0563 4.056C78.523 4.056 78.943 4.14467 79.3163 4.322C79.699 4.49933 80.0117 4.74667 80.2543 5.064C80.5063 5.372 80.6463 5.72667 80.6743 6.128V8.998C80.6463 9.39933 80.511 9.76333 80.2683 10.09C80.0257 10.4073 79.713 10.664 79.3303 10.86C78.9477 11.0467 78.523 11.14 78.0563 11.14ZM78.4343 9.208C78.7423 9.208 79.0083 9.14267 79.2323 9.012C79.4563 8.872 79.6337 8.68067 79.7643 8.438C79.895 8.19533 79.9603 7.91533 79.9603 7.598C79.9603 7.28067 79.895 7.00533 79.7643 6.772C79.643 6.52933 79.4657 6.338 79.2323 6.198C79.0083 6.058 78.747 5.988 78.4483 5.988C78.1497 5.988 77.8837 6.058 77.6503 6.198C77.4263 6.338 77.2443 6.52933 77.1043 6.772C76.9737 7.01467 76.9083 7.29 76.9083 7.598C76.9083 7.906 76.9737 8.18133 77.1043 8.424C77.235 8.66667 77.417 8.858 77.6503 8.998C77.8837 9.138 78.145 9.208 78.4343 9.208ZM81.9763 11H79.8763V9.166L80.1983 7.514L79.8343 5.862V0.836H81.9763V11ZM83.4845 11V4.196H85.6265V11H83.4845ZM84.5625 3.258C84.2265 3.258 83.9465 3.146 83.7225 2.922C83.5078 2.68867 83.4005 2.40867 83.4005 2.082C83.4005 1.746 83.5078 1.466 83.7225 1.242C83.9465 1.018 84.2265 0.906 84.5625 0.906C84.8985 0.906 85.1738 1.018 85.3885 1.242C85.6032 1.466 85.7105 1.746 85.7105 2.082C85.7105 2.40867 85.6032 2.68867 85.3885 2.922C85.1738 3.146 84.8985 3.258 84.5625 3.258Z" fill="#2C2C2C"/>
</svg>
