<svg width="81" height="15" viewBox="0 0 81 15" fill="none" xmlns="http://www.w3.org/2000/svg">
<path d="M4.16669 9.21562C4.34563 9.45484 4.57392 9.65278 4.83608 9.79601C5.09825 9.93925 5.38815 10.0244 5.68612 10.0458C5.9841 10.0671 6.28318 10.0241 6.56308 9.9197C6.84298 9.81529 7.09715 9.6519 7.30835 9.44062L8.55835 8.19062C8.93785 7.7977 9.14784 7.27145 9.14309 6.7252C9.13834 6.17896 8.91924 5.65643 8.53298 5.27017C8.14671 4.8839 7.62418 4.6648 7.07794 4.66005C6.5317 4.65531 6.00544 4.86529 5.61252 5.24479L4.89585 5.95729" stroke="#525252" stroke-linecap="round" stroke-linejoin="round"/>
<path d="M5.83335 8.38545C5.65442 8.14623 5.42612 7.94829 5.16396 7.80506C4.9018 7.66183 4.61189 7.57665 4.31392 7.55531C4.01594 7.53397 3.71686 7.57696 3.43696 7.68137C3.15706 7.78578 2.90289 7.94917 2.69169 8.16045L1.44169 9.41045C1.06219 9.80337 0.852205 10.3296 0.856951 10.8759C0.861698 11.4221 1.0808 11.9446 1.46707 12.3309C1.85333 12.7172 2.37586 12.9363 2.9221 12.941C3.46835 12.9458 3.9946 12.7358 4.38752 12.3563L5.10002 11.6438" stroke="#525252" stroke-linecap="round" stroke-linejoin="round"/>
<path d="M19.432 12.12C18.864 12.12 18.352 11.992 17.896 11.736C17.44 11.472 17.08 11.116 16.816 10.668C16.552 10.22 16.42 9.712 16.42 9.144C16.42 8.584 16.548 8.08 16.804 7.632C17.068 7.184 17.42 6.832 17.86 6.576C18.308 6.312 18.808 6.18 19.36 6.18C19.888 6.18 20.352 6.3 20.752 6.54C21.16 6.78 21.476 7.112 21.7 7.536C21.932 7.96 22.048 8.44 22.048 8.976C22.048 9.056 22.044 9.144 22.036 9.24C22.028 9.328 22.012 9.432 21.988 9.552H17.176V8.652H21.412L21.016 9C21.016 8.616 20.948 8.292 20.812 8.028C20.676 7.756 20.484 7.548 20.236 7.404C19.988 7.252 19.688 7.176 19.336 7.176C18.968 7.176 18.644 7.256 18.364 7.416C18.084 7.576 17.868 7.8 17.716 8.088C17.564 8.376 17.488 8.716 17.488 9.108C17.488 9.508 17.568 9.86 17.728 10.164C17.888 10.46 18.116 10.692 18.412 10.86C18.708 11.02 19.048 11.1 19.432 11.1C19.752 11.1 20.044 11.044 20.308 10.932C20.58 10.82 20.812 10.652 21.004 10.428L21.7 11.136C21.428 11.456 21.092 11.7 20.692 11.868C20.3 12.036 19.88 12.12 19.432 12.12ZM26.7938 12L25.0178 9.504L24.8138 9.312L22.5698 6.3H23.8778L25.4978 8.52L25.7018 8.688L28.1018 12H26.7938ZM22.4618 12L24.8138 8.832L25.4258 9.624L23.7338 12H22.4618ZM25.7858 9.3L25.1618 8.532L26.7338 6.3H27.9938L25.7858 9.3ZM31.3449 12.12C30.8249 12.12 30.3529 11.992 29.9289 11.736C29.5049 11.472 29.1689 11.116 28.9209 10.668C28.6809 10.22 28.5609 9.716 28.5609 9.156C28.5609 8.596 28.6809 8.092 28.9209 7.644C29.1689 7.196 29.5009 6.84 29.9169 6.576C30.3409 6.312 30.8169 6.18 31.3449 6.18C31.7769 6.18 32.1609 6.272 32.4969 6.456C32.8409 6.632 33.1169 6.88 33.3249 7.2C33.5329 7.512 33.6489 7.876 33.6729 8.292V10.008C33.6489 10.416 33.5329 10.78 33.3249 11.1C33.1249 11.42 32.8529 11.672 32.5089 11.856C32.1729 12.032 31.7849 12.12 31.3449 12.12ZM31.5249 11.1C32.0609 11.1 32.4929 10.92 32.8209 10.56C33.1489 10.192 33.3129 9.724 33.3129 9.156C33.3129 8.764 33.2369 8.424 33.0849 8.136C32.9409 7.84 32.7329 7.612 32.4609 7.452C32.1889 7.284 31.8729 7.2 31.5129 7.2C31.1529 7.2 30.8329 7.284 30.5529 7.452C30.2809 7.62 30.0649 7.852 29.9049 8.148C29.7529 8.436 29.6769 8.768 29.6769 9.144C29.6769 9.528 29.7529 9.868 29.9049 10.164C30.0649 10.452 30.2849 10.68 30.5649 10.848C30.8449 11.016 31.1649 11.1 31.5249 11.1ZM33.2409 12V10.464L33.4449 9.072L33.2409 7.692V6.3H34.3329V12H33.2409ZM38.5093 12.12C37.9493 12.12 37.4413 11.988 36.9853 11.724C36.5373 11.46 36.1813 11.104 35.9173 10.656C35.6613 10.2 35.5333 9.696 35.5333 9.144C35.5333 8.584 35.6613 8.08 35.9173 7.632C36.1813 7.184 36.5373 6.832 36.9853 6.576C37.4413 6.312 37.9493 6.18 38.5093 6.18C38.9493 6.18 39.3573 6.264 39.7333 6.432C40.1093 6.592 40.4333 6.828 40.7053 7.14L39.9853 7.86C39.8093 7.652 39.5933 7.496 39.3373 7.392C39.0893 7.28 38.8133 7.224 38.5093 7.224C38.1493 7.224 37.8293 7.308 37.5493 7.476C37.2693 7.636 37.0493 7.86 36.8893 8.148C36.7293 8.436 36.6493 8.768 36.6493 9.144C36.6493 9.52 36.7293 9.852 36.8893 10.14C37.0493 10.428 37.2693 10.656 37.5493 10.824C37.8293 10.992 38.1493 11.076 38.5093 11.076C38.8133 11.076 39.0893 11.024 39.3373 10.92C39.5933 10.808 39.8133 10.648 39.9973 10.44L40.7053 11.16C40.4413 11.464 40.1173 11.7 39.7333 11.868C39.3573 12.036 38.9493 12.12 38.5093 12.12ZM42.5821 12V3.912H43.6621V12H42.5821ZM41.1781 7.284V6.3H45.0661V7.284H41.1781ZM48.3723 12.12C47.8523 12.12 47.3803 11.992 46.9563 11.736C46.5323 11.472 46.1963 11.116 45.9482 10.668C45.7083 10.22 45.5883 9.716 45.5883 9.156C45.5883 8.596 45.7083 8.092 45.9482 7.644C46.1963 7.196 46.5283 6.84 46.9443 6.576C47.3683 6.312 47.8443 6.18 48.3723 6.18C48.8043 6.18 49.1883 6.272 49.5243 6.456C49.8683 6.632 50.1443 6.88 50.3523 7.2C50.5603 7.512 50.6763 7.876 50.7003 8.292V10.008C50.6763 10.416 50.5603 10.78 50.3523 11.1C50.1523 11.42 49.8803 11.672 49.5363 11.856C49.2003 12.032 48.8123 12.12 48.3723 12.12ZM48.5523 11.1C49.0883 11.1 49.5203 10.92 49.8483 10.56C50.1763 10.192 50.3403 9.724 50.3403 9.156C50.3403 8.764 50.2643 8.424 50.1123 8.136C49.9683 7.84 49.7603 7.612 49.4883 7.452C49.2163 7.284 48.9003 7.2 48.5403 7.2C48.1803 7.2 47.8603 7.284 47.5803 7.452C47.3083 7.62 47.0923 7.852 46.9323 8.148C46.7803 8.436 46.7043 8.768 46.7043 9.144C46.7043 9.528 46.7803 9.868 46.9323 10.164C47.0923 10.452 47.3123 10.68 47.5923 10.848C47.8723 11.016 48.1923 11.1 48.5523 11.1ZM50.2683 12V10.464L50.4723 9.072L50.2683 7.692V6.3H51.3603V12H50.2683ZM55.9326 12.12C55.5006 12.12 55.1086 12.032 54.7566 11.856C54.4126 11.672 54.1366 11.42 53.9286 11.1C53.7206 10.78 53.6046 10.416 53.5806 10.008V8.292C53.6046 7.876 53.7206 7.512 53.9286 7.2C54.1446 6.88 54.4246 6.632 54.7686 6.456C55.1206 6.272 55.5086 6.18 55.9326 6.18C56.4526 6.18 56.9206 6.312 57.3366 6.576C57.7606 6.84 58.0926 7.196 58.3326 7.644C58.5726 8.092 58.6926 8.596 58.6926 9.156C58.6926 9.716 58.5726 10.22 58.3326 10.668C58.0926 11.116 57.7606 11.472 57.3366 11.736C56.9206 11.992 56.4526 12.12 55.9326 12.12ZM52.9326 12V3.432H54.0126V7.692L53.8086 9.072L54.0126 10.464V12H52.9326ZM55.7526 11.1C56.1126 11.1 56.4286 11.016 56.7006 10.848C56.9726 10.68 57.1886 10.452 57.3486 10.164C57.5086 9.868 57.5886 9.528 57.5886 9.144C57.5886 8.768 57.5086 8.432 57.3486 8.136C57.1886 7.84 56.9726 7.612 56.7006 7.452C56.4286 7.284 56.1166 7.2 55.7646 7.2C55.4046 7.2 55.0886 7.284 54.8166 7.452C54.5446 7.612 54.3326 7.84 54.1806 8.136C54.0286 8.432 53.9526 8.772 53.9526 9.156C53.9526 9.532 54.0246 9.868 54.1686 10.164C54.3206 10.452 54.5326 10.68 54.8046 10.848C55.0846 11.016 55.4006 11.1 55.7526 11.1ZM59.917 12V3.432H60.997V12H59.917ZM65.2172 12.12C64.6492 12.12 64.1372 11.992 63.6812 11.736C63.2252 11.472 62.8652 11.116 62.6012 10.668C62.3372 10.22 62.2052 9.712 62.2052 9.144C62.2052 8.584 62.3332 8.08 62.5892 7.632C62.8532 7.184 63.2052 6.832 63.6452 6.576C64.0932 6.312 64.5932 6.18 65.1452 6.18C65.6732 6.18 66.1372 6.3 66.5372 6.54C66.9452 6.78 67.2612 7.112 67.4852 7.536C67.7172 7.96 67.8332 8.44 67.8332 8.976C67.8332 9.056 67.8292 9.144 67.8212 9.24C67.8132 9.328 67.7972 9.432 67.7732 9.552H62.9612V8.652H67.1972L66.8012 9C66.8012 8.616 66.7332 8.292 66.5972 8.028C66.4612 7.756 66.2692 7.548 66.0212 7.404C65.7732 7.252 65.4732 7.176 65.1212 7.176C64.7532 7.176 64.4292 7.256 64.1492 7.416C63.8692 7.576 63.6532 7.8 63.5012 8.088C63.3492 8.376 63.2732 8.716 63.2732 9.108C63.2732 9.508 63.3532 9.86 63.5132 10.164C63.6732 10.46 63.9012 10.692 64.1972 10.86C64.4932 11.02 64.8332 11.1 65.2172 11.1C65.5372 11.1 65.8292 11.044 66.0932 10.932C66.3652 10.82 66.5972 10.652 66.7892 10.428L67.4852 11.136C67.2132 11.456 66.8772 11.7 66.4772 11.868C66.0852 12.036 65.6652 12.12 65.2172 12.12ZM69.9588 12.12C69.7348 12.12 69.5468 12.044 69.3948 11.892C69.2508 11.732 69.1788 11.544 69.1788 11.328C69.1788 11.104 69.2508 10.92 69.3948 10.776C69.5468 10.624 69.7348 10.548 69.9588 10.548C70.1828 10.548 70.3668 10.624 70.5108 10.776C70.6628 10.92 70.7388 11.104 70.7388 11.328C70.7388 11.544 70.6628 11.732 70.5108 11.892C70.3668 12.044 70.1828 12.12 69.9588 12.12ZM72.5032 12V6.3H73.5832V12H72.5032ZM73.0432 5.16C72.8432 5.16 72.6792 5.096 72.5512 4.968C72.4232 4.832 72.3592 4.664 72.3592 4.464C72.3592 4.272 72.4232 4.112 72.5512 3.984C72.6792 3.848 72.8432 3.78 73.0432 3.78C73.2432 3.78 73.4072 3.848 73.5352 3.984C73.6632 4.112 73.7272 4.272 73.7272 4.464C73.7272 4.664 73.6632 4.832 73.5352 4.968C73.4072 5.096 73.2432 5.16 73.0432 5.16ZM79.2068 12V8.676C79.2068 8.244 79.0708 7.888 78.7988 7.608C78.5268 7.328 78.1748 7.188 77.7428 7.188C77.4548 7.188 77.1988 7.252 76.9748 7.38C76.7508 7.508 76.5748 7.684 76.4468 7.908C76.3188 8.132 76.2548 8.388 76.2548 8.676L75.8108 8.424C75.8108 7.992 75.9068 7.608 76.0988 7.272C76.2908 6.936 76.5588 6.672 76.9028 6.48C77.2468 6.28 77.6348 6.18 78.0668 6.18C78.4988 6.18 78.8788 6.288 79.2068 6.504C79.5428 6.72 79.8068 7.004 79.9988 7.356C80.1908 7.7 80.2868 8.068 80.2868 8.46V12H79.2068ZM75.1748 12V6.3H76.2548V12H75.1748Z" fill="#525252"/>
</svg>
